<?xml version="1.0" encoding="utf-8"?>
<!-- Generator: Adobe Illustrator 24.1.0, SVG Export Plug-In . SVG Version: 6.00 Build 0)  -->
<svg version="1.1" id="Capa_1" xmlns="http://www.w3.org/2000/svg" xmlns:xlink="http://www.w3.org/1999/xlink" x="0px" y="0px"
	 viewBox="0 0 1439 324" style="enable-background:new 0 0 1439 324;" xml:space="preserve">
<style type="text/css">
	.st0{fill-rule:evenodd;clip-rule:evenodd;fill:url(#SVGID_1_);}
	.st1{fill-rule:evenodd;clip-rule:evenodd;fill:url(#SVGID_2_);}
	.st2{fill-rule:evenodd;clip-rule:evenodd;fill:url(#SVGID_3_);}
	.st3{opacity:0.39;fill-rule:evenodd;clip-rule:evenodd;fill:#160F29;}
</style>
<g transform="translate(871 -221)">
	
		<linearGradient id="SVGID_1_" gradientUnits="userSpaceOnUse" x1="-1109.455" y1="922.4653" x2="-1110.3121" y2="922.8459" gradientTransform="matrix(430.2328 0 0 -437.5003 478036.4375 403981.2812)">
		<stop  offset="0" style="stop-color:#160F29"/>
		<stop  offset="0.3892" style="stop-color:#EEC68D"/>
		<stop  offset="1" style="stop-color:#ECC8AF"/>
	</linearGradient>
	<path class="st0" d="M508,528c185.3,72,210-94,210-210s-94-210-210-210S335,209,298,318S322.7,456,508,528z"/>
	
		<linearGradient id="SVGID_2_" gradientUnits="userSpaceOnUse" x1="-1109.5" y1="922.4291" x2="-1109.5" y2="921.4556" gradientTransform="matrix(240 0 0 -240 266788 221581)">
		<stop  offset="0" style="stop-color:#212880"/>
		<stop  offset="1" style="stop-color:#212880;stop-opacity:0"/>
	</linearGradient>
	<circle class="st1" cx="508" cy="318" r="120"/>
	
		<linearGradient id="SVGID_3_" gradientUnits="userSpaceOnUse" x1="-1110.1141" y1="922.9678" x2="-1109.8684" y2="922.488" gradientTransform="matrix(430.2329 0 0 -437.5003 478227.75 403873.3125)">
		<stop  offset="0" style="stop-color:#212880"/>
		<stop  offset="1" style="stop-color:#160F29"/>
	</linearGradient>
	<path class="st2" d="M699.2,420c185.3,72,210-94,210-210s-94-210-210-210s-173,101-210,210S513.9,348,699.2,420z"/>
	<path class="st3" d="M142.2,251.6c-0.9,0.4-2,0.7-3.1,1c-1.2,0.3-2.4,0.5-3.6,0.7c-2.5,0.4-5.1,0.6-7.5,0.7c-2.4,0.1-4.6,0-6.2-0.1
		c-0.3-1.3,0.5-1.2,1.1-1.3c0.6-0.1,1.2-0.3,0.4-2.2c1.3,0.8,1.4,4.2,3.7,2.7c0-2.3-1.2-1.9-2.2-1.9c1-2.1,2.3-1.3,3.7-0.5
		c1.3,0.7,2.6,1.4,3.6-0.2c0.1-0.1,0.2-0.3,0.3-0.5c-0.1,0.2-0.2,0.3-0.3,0.5c-0.7,1.4,0.9,1.2,3.5,0.5c2.8-0.8,6.8-2.2,10.2-2.5
		C145.4,249.8,144,250.8,142.2,251.6 M64.9,220.1c-0.5,0.5-2.2,0.4-3.5-1.6c-0.8,0.7-1.8,0.7-2.9,0.4c0.4-0.8,0.9-0.9,1.2-1.9
		c-0.5-0.3-0.7,0.2-0.9,0.9c-1.6-3.3,3.3-1.8,2.6,0.7C64.7,218.6,65.4,219.6,64.9,220.1 M55.4,222.5c1.2-2,5,0.2,5.4,1.4
		C58.9,225.4,58.2,223.4,55.4,222.5 M469.9,92.5c-0.4-4-1.2-8-2.2-11.9c-0.2-0.8-0.4-1.5-0.7-2.3c-0.5-1.5-1-3.1-1.5-4.5
		c-0.6-1.5-1.1-3-1.8-4.4c-0.6-1.5-1.3-2.9-2.1-4.3c-1.5-2.9-3.1-5.6-5-8.3c-3.9-5.7-8.5-10.9-13.7-15.4c-1.7-1.5-3.4-2.8-5.2-4.1
		l-0.7-0.5l-0.6-0.4l-1.2-0.8c-0.8-0.5-1.7-1-2.5-1.5c-3.2-1.8-6.6-3.4-10.1-4.6c-6.8-2.4-13.4-3.3-19.5-3.4
		c-6.1-0.1-11.8,0.6-16.9,1.7c-5.1,1.1-9.8,2.4-14,3.7c-1.1,0.3-2.1,0.7-3.2,1.1c-1,0.4-2,0.9-3,1.4c-1.9,1-3.8,2.2-5.6,3.4
		c-3.6,2.4-7.1,5.3-10.3,8.2c-6.4,5.8-12,11.8-16.9,15.5c-0.6,0.4-1.2-1.7-2.3-1.1c-2.8,1.5-5.7,5-8.4,8.6c-2.7,3.7-5.2,7.4-7.3,9.2
		c-2.5-0.4-3.7,2.3-4.9,4.5c-1.2,2.1-2.2,3.7-4.6,0.8c-0.9,1.8-1.9,3.5-3,5.2c-1.1,1.6-2.1,3.1-3.3,4.4c-1.1,1.4-2.3,2.6-3.5,3.8
		c-1.1,1.1-2.3,2.2-3.6,3.3c-0.6,0.5-1.2,1-1.8,1.4c-0.6,0.5-1.2,0.9-1.8,1.4c-1.2,0.9-2.4,1.7-3.6,2.5c-1.2,0.8-2.4,1.6-3.5,2.3
		l-3.3,2.2c0.2,2.7,2.5,4.7,1.5,5.1c-1.4,1-2.2-3.3-3.6-2.2c0.1,2.5,2.3,3.5,1.3,4.1c-0.6-1.1-1.2-2.2-1.9-2.8
		c0.4,1.8,1.5,2.4,1,3.1c-0.4,0.1-0.2,1-0.5,1.3c-0.8-0.4-1.4-3.9-2.2-3.8c0.7,2.2,0.2,2-0.4,1.9c-0.6-0.2-1.2-0.3-0.7,1.9
		c0.7-0.3,1.4,0.4,2,1.6c-2.8,0.9-5.6,3.4-8.1,6c-0.6,0.6-1.2,1.2-1.9,1.8c-0.6,0.6-1.2,1.1-1.8,1.6c-1.2,0.9-2.4,1.6-3.6,1.7
		c0.2,2.5-0.5,3.2-1.4,3.9c-0.4,0.3-0.9,0.6-1.4,1c-0.4,0.4-0.8,1-1,1.9c-1.7-4-2.5-2.2-2.5-1.1c0.5-0.1,1.1-0.2,1.8,1.5
		c-0.2,2.2-1.5,2.4-2.9,2.4c-1.4-0.1-3-0.5-3.7,0.1c-0.8,0.7,0.3,5.7-1.2,5.7c-1.7,0-2.7,1.1-3.6,2.4c-0.9,1.3-1.6,2.9-2.7,4.2
		c-1.6,1.9-3.4,3.6-5.2,5.3c-1.9,1.8-3.9,3.4-6.1,5.1c-4.3,3.4-8.9,6.7-13.6,9.9l-3.5,2.4l-3.4,2.4c-2.3,1.6-4.4,3.2-6.5,4.8
		c-1,0.8-2,1.6-3,2.4c-0.9,0.8-1.9,1.6-2.8,2.4c-1.7,1.6-3.3,3.2-4.6,4.9c-1.6-0.6-3.3-0.4-4.9,0.2c-1.6,0.6-3.2,1.6-4.7,2.8
		c-1.5,1.1-2.9,2.3-4.1,3.2c-1.2,0.9-2.2,1.5-2.8,1.6c-1.9,0.1-1.2,2.7-4.3,4.1c-5.5,2.4-9.6,4.7-14.2-0.6c-1,1.7-2.5,2.8-4.1,3.5
		c-1.6,0.7-3.4,1-5.1,1.2c-0.9,0.1-1.7,0.2-2.5,0.4c-0.8,0.1-1.6,0.3-2.2,0.5c-1.4,0.5-2.5,1.2-3.1,2.5c1.1,0.4,2.3,0,3.2,1.4
		c-1.3,0.3-2.5,0.6-3.8,0.9l-1-4.2c-1.5,0.6-3,0.9-4.5,1.1c-1.5,0.2-3,0.3-4.4,0.4c-1.4,0.1-2.8,0.4-4.2,0.8c-1.4,0.4-2.7,1.1-3.9,2
		c0.6,0.2,1.6,1.5,0.9,2c-1.7-0.1-4.1,1.8-4.7-1.5c1.2-1.4,3.1,2.9,3.3-0.5c-1.3-0.7-2.4-1.9-4.1-1.6c0.1,1.6,0.7,3.9,0,4.3
		c-3.6-0.7-6.8-0.3-9.8,0.4c-1.4,0.3-2.8,0.7-4.2,1.2c-1.3,0.4-2.6,0.7-3.7,0.9c0.2-0.7,1.3-4.2-0.1-4.3c-2.8,3.8-7.2,2.8-11.3,1.5
		c-4.2-1.2-8.1-2.7-11,0.7c-0.1-2.8-1.4-3.7-2.9-3.4c-1.5,0.2-3.2,1.6-4.2,3.4c0.4-2.3,0-3.6-0.9-4.3c-0.9-0.7-2.3-0.9-3.8-1
		c-1.4,0,0.3,3-2,2.8c-0.8-0.7-1.6-1.4-2.4-2.1c-0.8-0.6-1.6-1.1-2.5-1.5c-1.7-0.9-3.5-1.5-5.4-2.2c-1.9-0.7-3.9-1.3-5.9-2.2
		c-2.1-0.9-4.2-2-6.4-3.6c-1.9,1.8-0.2,4.3-1.9,3.9c-2,0.3-3.9-0.9-5.5-2.4c-1.6-1.5-2.8-3.2-3.7-3.9c0.9,0.8-1.2,1.5-0.6-0.3
		c1.6-1.6,2-0.6,2.7,0.4c0.6,1,1.4,2.1,3.4,0.7c-0.8-0.5-2.2-2.3-3.7-3.7c-1.5-1.4-3.1-2.4-4.5-1.3c-0.9,1.5,0.2,1.3,1.1,1.2
		c0.9-0.1,1.6-0.1-0.1,2c-0.9-0.2-1.6-0.4-2.2-0.7c-0.6-0.3-1.1-0.8-1.6-1.3c-0.5-0.5-1.1-1.1-1.8-1.7c-0.9-0.8-1.9-1.6-2.9-2.2
		c1-1,2-1.1,3.1-3c-1.7,1.2-3.2,1.2-4.8,1.1c-1.6-0.2-3.5-0.5-6-0.1c0.6,1.3,1.4,2.4,2.2,3.4c0.4,0.5,0.8,1,1.2,1.5
		c0.4,0.5,0.9,0.9,1.3,1.4c0.9,0.9,1.9,1.8,2.9,2.6c1,0.8,2,1.6,3.1,2.4c4.2,3.1,8.7,6,13.1,10.8c-6.1-3.1-10.7-5.8-14.7-8.7
		c-1-0.7-2-1.5-2.9-2.2c-0.9-0.8-1.8-1.6-2.7-2.5c-1.8-1.7-3.4-3.7-5.1-5.9c-0.9,0.9-1.9,2.4-2.6,2c1.2-2,0.4-3.6-0.9-4.8
		c-1.3-1.2-3.1-2.2-4.3-2.9c2.8,3.3-0.4,0.4-2,1c0.9,0.3,1.1,2,1.1,3.3c0,1.3-0.4,2.3-0.7,1.6c0.7,1.7,2.4,3,4,4.3
		c1.7,1.3,3.4,2.4,3.9,4c0.2,0.7-2.2,2-1.4,3c-0.1-0.1,2-2.5,2.6-2.1c1.4,1.1,0.8,4.2,2.2,5.7c1.4,1.4,4.6,1.7,6.1,2.9
		c7.5,5.6,15.9,11.7,25.5,16.8c9.7,5.2,20.1,9.2,29.9,11.3c6.6,1.4,13.1,2.1,19.4,2.5c6.3,0.3,12.4,0.2,18.3,0.1
		c5.9-0.1,11.5-0.4,16.9-0.3c5.4,0.1,10.8,0.3,16.3,1c-2.3,0.1-4.5,0.2-6.8,0.5c-2.3,0.2-4.7,0.6-7.1,1c-4.8,0.8-10,1.7-15.4,2.4
		c-5.4,0.7-11.2,1.1-17.1,0.9c-5.9-0.2-11.9-1.1-17.6-2.9c-1.4,3.5-3-0.9-4.1,2.8c6.1,0.6,13.7,1.2,20.8,1.6
		c7.2,0.4,14.1,0.7,19.2,1.5c0.8,2.9-3.2-0.4-2.5,2.4c1.6,0.6,5-2.5,5,1.7c-11.3,0.7-24.4,0.3-38-1.4c-6.9-0.8-13.7-2-20.5-3.4
		c-1.7-0.3-3.4-0.7-5-1.1c-1.7-0.4-3.3-0.8-5-1.2l-2.4-0.6l-2.4-0.6c-1.6-0.4-3.2-0.8-4.7-1.2c2.1,1.6,4.3,2.9,6.7,4.1
		c2.3,1.2,4.8,2.3,7.4,3.2c2.6,1,5.4,1.8,8.4,2.8l4.6,1.3c1.6,0.5,3.2,0.9,4.9,1.3c7.2,2,14.9,3.1,22.5,3.7c7.6,0.5,15,0.4,22,0.1
		l2.6-0.1l2.5-0.2c1.7-0.1,3.3-0.2,4.9-0.3l9.3-0.7c6-0.4,11.4-0.9,16.3-0.8c1.3-1.6,5.8-3.2,10.5-4.3c2.3-0.6,4.7-1,6.8-1.2
		c2.1-0.2,3.9-0.1,5,0.3c6.8-2.3,13.9-5.1,21-8.3c7.1-3.2,14.3-6.7,21.2-10.2c3.5-1.8,6.8-3.6,10.1-5.3c3.1-1.7,6.3-3.3,9.1-4.7
		l2.2-1.1l2.1-1c1.3-0.6,2.7-1.2,4-1.8c0.6-0.3,1.3-0.5,1.9-0.8c0.6-0.3,1.2-0.5,1.9-0.7c1.2-0.5,2.4-0.9,3.6-1.2
		c-0.2,0.4-0.9,0.6-0.3,1.5c1.9-0.7,3.8-1.6,5.6-2.5c1.8-1,3.5-2.1,5.1-3.3c1.5-1.2,2.9-2.5,4-3.9c1.1-1.4,1.9-2.8,2.4-4.4
		c-2-1.8-2.8,2.7-4.8,0.7c0.7-0.9,1.4-2,2.4-2.8c0.5-0.4,1.1-0.8,1.7-1c0.7-0.3,1.5-0.4,2.3-0.4c0.7,1.2,0.4,1.5,1.4,2.9l1.2-0.9
		l1.1-0.8l2.3-1.6l2.1-1.4c0.7-0.5,1.4-0.9,2-1.3l1.9-1.2c0.3-0.2,0.6-0.4,0.9-0.6l0.9-0.5l0.9-0.5c0.3-0.2,0.6-0.4,0.8-0.5
		c0.5-0.3,1.1-0.6,1.6-0.9c0.5-0.3,1-0.6,1.5-0.9c0.5-0.3,1-0.6,1.4-0.9c0.9-0.5,1.8-1.1,2.6-1.8c0.9-0.6,1.9-1.3,2.7-2
		c1-0.7,1.9-1.5,2.8-2.3c2.7-2.4,5.6-5.2,8.7-8.4c0.8-0.8,1.6-1.6,2.4-2.4l1.2-1.3l1.3-1.3l5.3-5.6c3.7-3.8,7.7-8.1,12-12.5
		c2.2-2.3,4.5-4.5,6.8-6.9l3.6-3.5c1.2-1.2,2.5-2.5,3.8-3.6c0.9-0.9,1.9-1.8,2.9-2.7l1.5-1.3l1.5-1.3c1.9-1.7,3.8-3.2,5.3-4.4
		c2.5-2,4.6-3.1,6.7-4.1c2.1-1,4.1-1.9,6.5-3.4c3.1-1.9,6.6-4.8,10.8-7.2c2.1-1.2,4.4-2.3,6.9-3c1.2-0.4,2.5-0.7,3.7-0.8
		c1.2-0.1,2.6-0.2,3.8-0.2c2.2,0.1,4.6,0.8,7.1,1.9c2.5,1.1,5,2.7,7.4,4.6c2.4,1.9,4.7,4.1,6.9,6.3c0.5,0.5,1,1.1,1.6,1.6
		c0.5,0.5,1.1,1.1,1.6,1.6c0.5,0.5,1,1,1.5,1.5c0.3,0.2,0.5,0.5,0.8,0.7c0.2,0.2,0.5,0.4,0.8,0.7c1.1,0.9,2.2,1.8,3.4,2.5
		c1.1,0.8,2.2,1.4,3.3,2c2.2,1.2,4.5,1.9,6.8,2.1c2.3,0.2,4.7,0,7-0.8c2.4-0.8,4.7-2,7-3.7c2.3-1.6,4.4-3.7,6.4-5.9
		c1-1.1,1.9-2.2,2.9-3.4c0.9-1.2,1.8-2.3,2.6-3.5l2.4-3.3c0.7-1,1.5-1.9,2.2-2.9c1.5-1.7,2.8-3.1,4.3-3.7
		C470.6,105.9,470.6,99,469.9,92.5"/>
</g>
</svg>
