<svg width="538" height="380" viewBox="0 0 538 380" xmlns="http://www.w3.org/2000/svg">
	<style type="text/css">
	.st1{fill:#ECC8AF;}
</style>
  <path d="M0 0h538v380H0z" fill="#160F29" fill-rule="evenodd"/>
  <g>
	<g>
		<path class="st1" d="M185.7,234.4c0,0-0.2,0-0.3-0.2l1.4,0.3c1.7,0.5,0.3,2.5,0.8,3.6c0,0.2,0.9,0.2,1.1,0.6
			c0,1.7-1.2,5.4-0.6,5.1c-0.6,0.5-5-0.2-7.5-0.6c-9.9-0.8-22.8-0.9-27.8,0.3c2.5,0,8.5,0.2,5.1,1.1c-2.5,0.8-17.6,1.2-17.6,1.2
			c-0.5-0.5,3.6-1.4,4.2-1.4c1.2-0.2,3.6,0,4.7-0.6c-5.1,0.5-10.9-0.5-14.6,1.6c0.5,0,0.6,0.5,0,0.5v-0.5c-1.4-0.5-1.1,0.5,0,0.5
			c-0.5,1.1-2.5,1.4-3.1,1.6c-2.8,0.5-7.5,0.5-8.7-0.3c-0.6-0.3-1.6-5.6-1.6-5.9c0.5-1.2,0.9-0.9,1.4-1.7h-1.2
			c-0.6-0.6,3.7-2,3.7-1.4c1.4-2.5,0.6-7.9,1.4-12.1c0.6-3,1.4-7.1,2.5-10.7c1.1-4.2,1.9-8.2,3-10.7c0.5-1.2,0.9-0.9,1.4-1.7
			c0.5-0.6,0.5-2,0.9-2.8c2.3-5.4,3-11.5,5-16.9c1.2-3.3,3.1-6.1,4.5-9.3c1.1-1.9,1.1-3.9,1.9-5.7c0.8-1.4,2.2-2.6,3-4.3
			c3.3-6.7,5.6-13.4,8.7-20c2.3-5,5-9.3,7.5-13.8c1.7-3,2.8-5,3.9-8.2c1.4-4.2,3.6-7.9,5-11.8c-0.5-1.1,0.8-0.5,1.2-0.9
			c0.5-0.5-0.2-1.1,0.6-1.1c0.8-0.2,0.9-1.1,1.4-1.1c1.1,0,5.9,1.6,6.1,1.7c0.8,0.8,0.5,7,0,9.8c-0.8,3.6-3,6.7-5.3,10.6
			c-1.1,1.7-2.3,3.3-3,5c-0.8,2.3-0.3,4.3-1.4,6.8c-0.8,2.3-2.6,4.7-3.7,7.1c-1.2,2.5-2,5.3-3.3,7.8c-2.3,5-4.2,10.6-6.5,15.7
			c-4.5,10.7-11.3,22.8-14.3,31.7c-1.2,5.6-5.4,16.2-7.1,21.4c-1.2,3.3-0.5-0.2-0.5-1.2c1.2-6.2,5.9-17.4,7.6-20.2
			c-2.3-0.8,1.6-6.8,0.9-7.5c-0.5-0.3-1.6,2.8-1.6,2.8c-0.5,1.9-2.2,5.4-2.3,6.2c-2.3,6.1-3.1,9.2-4.2,15.2
			c-1.2,5.1-4.7,14.6-3.1,16.5c0.5,0.6,0.8-1.1,0.6-1.1c0.3,0,0.5,0.2,0.5,0.6v0.6c1.1,0,2.2-0.3,3.4-0.3c5.7,0,15.8-1.7,19.4-1.7
			c8.9-0.2,18.6-1.1,26.3,0c-0.5,0-1.4,0.2-0.9,0.6C184.6,235,185.9,234.9,185.7,234.4z M124.8,239.9c0-0.2-0.8,0-0.6,0.5
			C124.4,240.5,125.3,240.3,124.8,239.9z M127.2,245.3c-0.5-0.5-2-0.2-1.9,0.3C125.8,246.1,127.3,245.8,127.2,245.3z M127,237.1
			c0-0.2,0.2-3.7-0.3-2.3C125.9,237.1,126.6,237.7,127,237.1z M127.8,229.6c0-0.2,0.2-3.6-0.3-1.7
			C126.7,230.2,127.3,230.8,127.8,229.6z M128.4,239.5c-0.2-0.2-1.1,0.2-0.6,0.6C127.9,240.3,128.9,240,128.4,239.5z M128.1,236.6
			c0,0.5,0.6,0.8,0.6,0.2C128.7,236.3,128.3,236,128.1,236.6z M130.1,239.2c0-0.5-0.8,0-0.6,0.5
			C129.7,239.9,130.6,239.7,130.1,239.2z M132.5,225.4c-0.5,0.6-0.3,1.7-0.3,2.3C131.7,233.3,133.7,222.5,132.5,225.4z M133.7,220.3
			c-0.5,0.6-0.3,1.7-0.3,2.3C132.9,228.2,134.9,217.3,133.7,220.3z M147.2,194.3c0.2-0.6-0.2-1.7-0.6-0.6
			C146.4,194.3,146.7,195.4,147.2,194.3z M148,192.2c0.2-0.6-0.3-1.7-0.5-0.6C147.4,192.2,147.8,193.2,148,192.2z M149.1,188.4
			c2.3-4.5,5.3-9.2,5.1-14.3c-0.5,0.5-2,2.8-2.2,4.5c-0.2,1.1,0.6,1.7,0.2,2.3c-0.2,0.8-1.4,1.4-1.9,2
			C149.2,185,149.7,186.4,149.1,188.4z M152.8,243.6c-0.5,1.2-2.5,0.2-3.6,0.3C149.7,242.6,151.7,243.7,152.8,243.6z M155.8,171.3
			c0-0.5-0.5-0.6-0.6,0C155.1,171.8,155.6,172,155.8,171.3z M156.5,169.2c0-0.5-0.5-0.8-0.5,0C155.9,169.6,156.5,169.8,156.5,169.2z
			 M157.3,167.5c0-0.5-0.5-0.6-0.5,0C156.7,167.9,157.3,168.1,157.3,167.5z M157.6,165.8c0,0.2,0.8,0,0.6-0.5
			C158.1,165.1,157.2,165.3,157.6,165.8z M158.4,164c0,0.2,0.8,0,0.6-0.5C158.9,163.4,157.9,163.6,158.4,164z M159.2,162.5
			c0.2,0.2,0.8-0.2,0.6-0.6C159.6,161.7,158.7,162,159.2,162.5z M159.9,160.8c0.2,0.2,0.8,0,0.6-0.5
			C160.4,159.9,159.5,160.3,159.9,160.8z M161.5,156.9c0.2,0.2,1.1-0.2,0.6-0.6C162,156.1,161,156.4,161.5,156.9z M162.3,155.2
			c0.2,0.2,1.1,0,0.6-0.5C162.7,154.6,161.8,154.7,162.3,155.2z M173.6,243.7c-0.3,0.3-0.6,0.5-1.1,0.6c-0.8,0.5-1.4,0.3-1.9-0.3
			C169.9,243.3,173.3,243.4,173.6,243.7z M180.5,244.4c0,0-5.9-0.2-6.4-0.5C173.3,242.6,186.8,244.4,180.5,244.4z M181.1,235.3
			c0.5-0.2,0.8-0.3,1.1-0.6c-0.3-0.3-3.7-0.5-3,0.3C179.7,235.7,180.3,235.8,181.1,235.3z M185.4,236.1c-0.2-0.2-0.8,0.2-0.6,0.6
			C185,236.9,185.9,236.6,185.4,236.1z"/>
		<path class="st1" d="M201.3,234.7v-0.6c-3.3,0-7.6,2.5-2.3,1.2C199.6,235.2,200.2,234.3,201.3,234.7c-2.2,4.3-8.4,1.9-10.9,0.6
			c-1.4-0.8-1.9-1.7-2.5-2.8c-1.1-1.1-3.6-3.3-3.7-3.7c-1.7-3.7-0.8-8.7-0.2-11.7c0-0.2,1.1-0.6,1.1-1.1c0.5-2,0.2-4.3,0.8-6.4
			c0.5-2,2-3.6,2.5-5.4c0.8-1.9,0.2-3.9,0.9-4.7c1.7-1.9,1.7-4.7,3.1-5.4c0.5-0.2,0.6-0.5,0.5-1.1c0.8-0.2,0.5-0.6,0-0.6
			c0.2-0.5,0-1.1,0.5-1.2c-0.5-1.7,1.1-0.5,1.2-0.6l0.5-1.1c0.2-0.8,0.3-1.1,0.5-1.2c0.5-0.8,0.9-3.4,1.6-3c3-2,8.9,2.5,8.9,3
			c0.5,1.1-0.5,3-0.9,4.7c-0.2,1.2,0.3,2.8,0.3,3.4c-0.5,1.7-1.7,4.7-3,8.2l-2.5,7.1c-0.2,0.2-1.1,0.2-1.1,0.6
			c-1.2,2.5-1.9,5.3-3,8.2c-1.4,3.9-3.1,8.7-2.3,9.3c0.8,0.9,5.7-2,5.6-2c0.2,0,0,0.9,0.6,0.5c0.2,0-0.2-0.9,0-1.1
			c0.2-0.2,0.8,0.3,0.6,0.5c1.9-1.4,4.2-5,5.9-6.7c3.1-3,5.7-6.5,8.7-8.5c0.5-0.5,2-0.9,2.2-1.4c0.6-0.6,0.5-1.7,1.6-3.4
			c1.7-2.5,6.2-6.4,7.5-8.5c0.6-1.1,2.2-5,3.3-5.4c0.8-0.5,3,1.1,2.8,0.9c0.5,1.1-0.9,1.2-2,3.1c-0.8,1.2-1.1,3-1.6,3.6l-2.2,3
			c-0.8,1.7-0.9,3.1-1.4,4.2c-1.2,1.7-3.6,3.1-5,4.8c-0.6,1.1-0.5,2.2-0.9,3c-0.5,1.4-3.9,3.6-4.3,4.3c0-2.6-3.3,1.6-1.6,1.9
			l-9.2,9.8c-0.8,0-0.5,0.9-1.1,1.1c-0.2,0.5-0.5,0.8-0.6,0.6v-0.5c-0.8-0.2-1.1,0-1.1,0.6c0.5,0,0.9,0,1.1-0.2
			C202.2,234.4,201.7,234.7,201.3,234.7z M184.5,224.8c0-0.5-0.6-0.6-0.6,0C183.9,225.2,184.5,225.4,184.5,224.8z M185.3,227
			c-0.2-0.2-1.1,0.2-0.6,0.6C184.8,227.7,185.7,227.4,185.3,227z M187.7,222.1c-0.2,0.8,0.2,2,0.2,2.8c0,0.3,0.5,3.7,0.8,1.9
			C189.1,225.2,188.1,221.1,187.7,222.1z M191.6,227.7c-0.2,0.8,0.5,2.2,0.6,1.1C192.4,228,191.8,226.6,191.6,227.7z M192.1,225.4
			c-0.2,0.6,0.5,1.4,0.5,0.6C192.7,225.4,192.1,224.3,192.1,225.4z M192.9,193.1c-0.5,0-0.6-0.5,0-0.6V193.1z M193,223.7
			c0-0.5-0.6-0.6-0.5,0C192.6,224.2,193.2,224.3,193,223.7z M193,221.8c0.2,0.2,0.9-0.2,0.5-0.6C193.3,221.2,192.6,221.7,193,221.8z
			 M196.1,232.9c0.5-0.2,0.8-0.5,0.9-0.8c-0.5-0.5-3.7,0.2-2.8,0.6C194.7,233.2,195.4,233.3,196.1,232.9z M194.9,215.5
			c0.2,0.2,0.9-0.2,0.5-0.6C195.2,214.7,194.4,215,194.9,215.5z M196.4,213c0.3-1.6,2.3-5.4,0.9-4c-0.5,0.5-1.1,1.2-1.6,2.3
			C195.5,212,195.7,215.9,196.4,213z M198.8,231.3c-0.2-0.2-1.1,0.2-0.6,0.6C198.3,232.1,199.2,231.8,198.8,231.3z M201.4,170.6
			c0.2-0.5,0.2-0.8,0.2-1.2c0-0.6,0-1.6,0.2-2.2c0.5-1.9,2-1.2,2.2-3h-0.6c0-0.5,0.2-0.8,0.5-0.6c0.2,0.2,0.2,0.3,0.2,0.6
			c0.6-0.2,0.3-0.6-0.2-0.6c1.7-2,4.5-7.1,7.9-4c1.7,1.4,4.2,4.8,2.8,7.9c0.2,0.6,0.2,0.9-0.3,0.9c-0.2,0-0.5,0-0.8-0.2
			c-0.5,0.2-0.5,1.2-0.5,1.7c-1.1,2.5-2.2,5.6-4.8,6.1c-1.9,0.2-2.5-1.1-3.1-1.6C204.2,173.7,201.6,171.3,201.4,170.6z M203.1,170.6
			c0-0.5-0.3-3.4-0.8-1.7C201.9,171.2,202.7,171.7,203.1,170.6z M202.3,233.5c0-0.5,0.5-0.8,0.6-0.2
			C202.8,233.5,202.5,233.5,202.3,233.5z M204.2,171c0.2,0.2,1.1-0.2,0.6-0.6C204.7,170.3,203.7,170.6,204.2,171z M206.9,174.9
			c0.2,0.2,0.9-0.2,0.5-0.6C207.2,174.1,206.4,174.5,206.9,174.9z M207.3,173.2c0.2,0.2,0.9-0.5,0.5-0.6
			C207.6,172.4,206.9,172.7,207.3,173.2z M208.6,174.8c0.2,0.2,0.9-0.2,0.5-0.6C208.9,174,208.1,174.3,208.6,174.8z M209.7,174.1
			c0.2,0.2,1.1-0.2,0.6-0.6C209.8,173.4,209.2,173.7,209.7,174.1z M212.6,164.8c0-0.6-0.6-1.7-0.6-0.6
			C211.8,164.8,212.4,165.6,212.6,164.8z M213.7,221.8c0,0.5-0.2,0.6-0.5,0.6C213.2,222,213.4,221.7,213.7,221.8z M214.3,221.2
			c0,0.5-0.2,0.6-0.6,0.6C213.7,221.4,213.8,221.1,214.3,221.2z M214.8,220.6c0,0.5-0.2,0.6-0.5,0.6
			C214.3,220.7,214.5,220.4,214.8,220.6z"/>
		<path class="st1" d="M243.2,234.4c-3.3,0.2-6.2,1.6-9.2,1.7c-6.7,0.5-9.2-2-12.7-5.6c-2.3-2.3-4.2-4.5-5-7.5
			c-1.2-4.8-1.1-10.6-0.5-13.8c0.8-3.6,1.9-7.1,3-10.3c1.1-2.6,2.2-5,3.3-6.7c2.5-4.3,5.4-9.8,9-12.7c2.5-2.3,3.9-3.6,6.8-5.4
			c2.6-1.7,5.1-3.1,8.2-4.3c2-1.1,3.3-1.7,5-1.7c3-0.5,6.5,0.6,8.4,1.9c1.2,1.1,2.3,3.1,3.4,4.8c1.1,2,2.5,4.3,2.5,6.1
			c0-0.3-0.5,2.3-0.3,2.3c-0.5,0.5-1.6-0.2-1.7,0.3c-0.5,0.5-0.2,1.6-0.3,2.3c-0.5,1.1-1.4,2.8-1.4,3c-0.5,0.5-0.5,2.5-0.9,3.1
			c-2,3.7-8.9,7-12.1,9.5c-0.5,0.2-0.5,1.1-0.5,1.2c-0.5,0.2-1.9-0.9-1.7,0.2c0-0.2,1.2,0.6,0.6,1.1c-2.5,1.7-11.7,3.3-13.7,1.6
			c-1.1,0.6-1.6-1.2-3-0.8c-2,0.8,0.5,2.5-0.8,3c-0.8,0.3-1.4-2-1.7,0.3c-0.9,2.6,1.2-0.2,0.8,2.8h-1.1c-0.2,0.5,0.3,0.8,0.2,1.2
			c-1.2,2.6-5,13.2-3.4,15.4c0.6,1.2,3.9,1.7,6.5,1.6c8.2-0.5,18.8-7.8,24.7-11.5c2.5-1.7,5.3-3.1,7.6-5c2.6-2,5.9-6.2,8.9-8.5
			c0.5-0.5,0.5-0.8,0.9-1.2c0.8-0.5,4.2-4.5,4.8-5.1c1.4-1.1,2.2-3.4,4.2-2.8c0.5,0-0.5,1.1-0.3,1.2c0.2,0,0.5,0,0.8-0.2
			c0.5,0,0.8-0.2,0.9-0.2c0.6,2.3-0.6,3.6-1.2,4.2c-0.5,0.5-1.2,0.3-1.7,0.8c-0.3,0.8-3,5.3-3.4,6.2c-1.1,1.1-2,1.4-2.6,2
			c-1.9,1.7-3.9,4.2-5.3,5.3c-0.8,0.6-2.2,1.4-2.6,2c-0.5,0.5,0.2,1.2-0.3,1.7l-0.6,0.5l-0.5,0.3c-0.6,0.5-0.9,0.6-1.7,0.8
			c-5.1,6.4-12.6,10.7-20,14.9c0.8-0.2,1.1,0.6-0.2,0.8V234.4z M219.6,220.4c-0.5,2.3,0.6,2.8,0.6,1.6
			C220.2,221.5,219.6,218.7,219.6,220.4z M229.7,208.8c0.5,0.2-0.3,0.8-0.5,0.6C228.8,208.9,229.5,208.6,229.7,208.8z M230.9,233.5
			c0.5,0.5,6.2-0.6,6.2-0.6C243.4,231.6,229.7,232.7,230.9,233.5z M231.1,230.5c0.2,0.2,1.6-0.2,1.7-0.2
			C237.8,229.6,230,229.8,231.1,230.5z M234.3,199c-0.3,0.3-3.4,2.8-0.8,2.3c-1.2,2.3,1.4,0.5,3.4-0.3c1.9-0.8,4-1.4,6.1-2.5
			c0.5-0.2,1.2-0.3,1.7-0.8c0.2-0.2,0.2-1.1,0.3-1.2c1.1-0.6,2.3-0.5,2.8-0.9c1.1-0.8,0.9-2.5,2-3.7c0.8-0.9,1.6-1.7,2.5-2.5
			c0.6-0.6,1.7-0.9,2.2-1.4c1.7-1.9,1.6-4.7,3.4-5.7c-0.5-1.1,1.1-0.8,1.6-1.2c0.5-0.8,0.6-1.7,0.6-2.8v-2c-1.2-1.7-3.4,0.9-4.5,1.2
			c-1.4,0.6-2.6,0.9-4.3,2.2c-0.5,0.5-0.5,0.8-0.9,1.2c-3.3,2.5-11.3,10.3-13,13.2c-0.5,0-0.3,0.6-0.5,1.1h0.6
			c0.5,1.4-0.6,1.9-1.4,2.5c0.5-1.9-5-0.8-2.8,0.9C232.8,198.1,235,197.3,234.3,199c0.2-0.2,0.5-0.2,0.6-0.2
			C235,199.3,234.8,199.6,234.3,199z M243.2,235c0.5,2-10.1,3.1-10.1,2.3C233.1,236,242.7,235.8,243.2,235z M235.1,229.6
			c0.5,0.3,1.1,0.3,1.9-0.2c0.3-0.2,0.6-0.5,0.9-0.8C237.1,228.2,234.2,229.1,235.1,229.6z M235,198.8c0-0.5,0.2-0.6,0.5-0.6
			C235.4,198.7,235.3,198.8,235,198.8z M236.1,197.6c0,0.5-0.2,0.6-0.6,0.6C235.4,197.8,235.6,197.6,236.1,197.6z M237.3,203.2
			c-0.5-0.2-2.2,0.6-1.7,0.8C236.1,204.4,237.8,203.7,237.3,203.2z M240.9,204.6l-2.8,0.3c-5.1,0.8,3.7-0.3,4.5-0.6
			C246.8,202.9,240.9,204.6,240.9,204.6z M237.5,195.1c0-0.5-0.2-0.6-0.2-1.1C237.9,193.9,238.1,194.6,237.5,195.1z M238.5,229.1
			c0.2,0.2,1.6-0.5,1.1-0.6C239.5,228.4,238.1,229,238.5,229.1z M241,231.2c-0.5-0.2-2,0.6-1.6,0.8
			C239.9,232.4,241.5,231.6,241,231.2z M241.8,227.6c-0.2-0.2-1.6,0.3-1.1,0.8C240.9,228.5,242.3,228,241.8,227.6z M241.5,200.4
			c0.2,0.2,1.1-0.2,0.6-0.6C241.6,199.6,241,199.9,241.5,200.4z M243.5,226.8c-0.5-0.2-1.6,0.3-1.1,0.8
			C242.6,227.7,243.7,227.3,243.5,226.8z M243.5,182.2c-0.8,0-1.1,0.3-1.1,0.8C242.9,183,243.4,182.7,243.5,182.2z M243.5,182.2
			c0.3,0,0.5-0.2,0.5-0.6C243.7,181.6,243.5,181.8,243.5,182.2z M244,181.6c0.3,0,0.5-0.2,0.5-0.6C244.1,180.8,244,181.1,244,181.6z
			 M244.4,181c0.8,0,1.1-0.3,1.1-0.8C245.1,180.2,244.6,180.5,244.4,181z M245.1,226c-0.2-0.2-0.9,0.5-0.5,0.6
			C244.8,226.8,245.5,226.5,245.1,226z M245.8,202.9c-0.2-0.2-1.6,0.5-1.1,0.6C244.9,203.7,246.3,203,245.8,202.9z M246,233.5
			c0.5,0.5-0.2,0.8-0.6,0.6C244.9,233.9,245.8,233.3,246,233.5z M246.2,225.4c-0.2-0.2-0.9,0.2-0.5,0.6
			C245.8,226.2,246.6,225.6,246.2,225.4z M247.1,173.1c0.2,0.2,0.9-0.2,0.5-0.6C247.4,172.3,246.6,172.9,247.1,173.1z M247.9,224.6
			c-0.2-0.2-1.1,0.2-0.6,0.6C247.7,225.4,248.3,225.1,247.9,224.6z M248.2,172.4c0.2,0.2,1.6-0.3,1.1-0.8
			C249.1,171.5,247.7,172,248.2,172.4z M248.9,223.9c-0.2-0.2-1.1,0.5-0.6,0.6C248.8,224.6,249.4,224.3,248.9,223.9z M249.4,227.9
			c-0.2-0.2-1.1,0.5-0.6,0.6C249.3,228.7,249.9,228.4,249.4,227.9z M250,223.2c-0.5-0.2-1.1,0.2-0.6,0.6
			C249.9,224,250.5,223.4,250,223.2z M251.1,222.5c-0.5-0.2-1.1,0.5-0.6,0.6C250.7,223.2,251.6,222.9,251.1,222.5z M253.1,175.4
			c0.2,0,1.6-0.3,1.1-0.8C254.1,174.5,252.7,174.9,253.1,175.4z M254.7,174.6c1.4,1.1,3-0.9,2.8-0.9
			C257.2,173.4,253.8,173.7,254.7,174.6z M256.4,223.1c-0.5-0.2-1.1,0.2-0.6,0.6C255.9,223.9,256.9,223.2,256.4,223.1z M257.3,222.3
			c-0.2-0.2-0.9,0.5-0.5,0.6C257,223.1,257.8,222.8,257.3,222.3z M260.8,220.7c-0.5,0-0.6,0.2-0.6,0.6
			C260.6,221.5,260.8,221.2,260.8,220.7z M260.8,220.7c0.6,0,0.9-0.2,1.1-0.6C261.1,220.1,260.8,220.3,260.8,220.7z M263.7,181.6
			c0,0.6,0.6,1.6,0.6,0.5C264.3,181.4,263.7,180.5,263.7,181.6z"/>
		<path class="st1" d="M301.8,196.7c-0.6,0-0.5,0.5,0,0.6c-3.7,2.3-5.3,6.8-7.6,8.9c-1.7,1.4-3,2.6-4,4c-0.8,1.1-1.6,2.2-2.2,3.3
			c-0.5,1.1-0.3,2.2-1.1,3.3c-0.8,1.4-2.5,2.3-3.3,3.7c-0.5,0.8-0.5,1.7-0.9,2.8c-0.5,0.8-1.1,1.4-1.6,2c-1.7,3.7-2.5,8.7-4.8,10.4
			c-0.2,1.1,0.2,2.2-0.9,2.2c0,3.7-1.4-1.4-1.4,2.8c-1.7,1.2-1.6,3-2.2,3.1c-3.6,1.6-10.4-3.4-10.9-5.4c-0.5-1.7,0.5-5.6,0.9-7.9
			c0.8-3.6,2.3-6.7,3-9c1.9-7.5,2.6-13.4,4.7-21.4c1.7-6.4,3.9-11.8,5.7-17.2c0.2-0.5-0.6-0.8-0.5-1.2c0-0.2,1.1-0.2,1.2-0.3
			c0.8-2,0.9-4.3,1.4-6.2c1.2-4.8,4.3-12.1,5.1-12.1c1.6-0.8,8.9,2.6,8.4,2.2c0.5,0.6,0.5,0.3,1.1,0.8c1.2,1.1,1.4,2,1.9,3.1
			c0.2,0.5,0.9,0.9,0.9,1.4c0.5,2.5-0.8,7.1-1.9,10.1c-0.6,1.7-1.1,0.3-1.2,0.5c-0.2,0.2-0.3,0.5-0.5,1.2l-0.5,0.9
			c-0.8,2-1.6,6.2-2,7.3c-0.2,0.2-0.6-0.6-0.5-1.2c-0.6,1.2,0.2,1.6-0.3,3c-0.5,1.4-0.9-0.2-1.4,0.9c-0.2,0.2-0.3,0.6-0.5,1.2
			l-0.3,0.9c-0.5,1.1,0.3,1.9,0.2,3c-0.5,0.8-0.9,0.8-1.4,1.6c-0.5,1.1-0.2,2-0.3,2.8c-0.8,3.3-1.7,7.5-0.5,3l4.7-12.7
			c0.5-1.7,2.8-7.8,2-2.6c-0.8,4.3-5.4,16.5-5.7,17.2c-0.5,1.1,0.5,1.2,1.1,0.6c2.3-1.7,4.2-5.6,5.6-7.3l1.4-1.6
			c0.8-1.1,1.7-3.3,2.2-3.7c1.1-1.1,2.3,1.1,1.9-0.9c0.8,0,0.6-0.6,0.2-0.6c0.2-0.5,0.2-1.1,0.8-1.1c0.3-0.8,0.8-1.2,1.2-1.6
			c3-1.9,5-5.6,6.8-7.3c0.5-0.5,0.3-1.1,0.8-1.6c1.1-1.1,3.1-1.1,4.4-2.3c0.5-0.5,0.6-1.2,0.8-1.7c2.5-3.3,6.5-6.1,9.2-8.1
			c0.5-0.2,1.1-0.2,1.2-0.3l0.3-0.9c0.2-0.5,0.2-0.8,0-0.8c2.6-0.5,4.8,1.4,5.4,1.9c1.9,1.2,2.2,1.1,3.3,2.8
			c0.8,1.7,1.7,2.5,1.7,3.6c0.5,3.7-1.6,7.1-2.3,9l-4.3,11.7c-2,5-4.5,11.2-7.1,14.8c-1.9,1.7-1.7,4.2-2.8,7.8
			c-1.1,4.3-2,5.9,1.1,4.2c1.9-1.1,2.8-1.7,5.1-2.8c1.1-0.5,1.9-0.2,3-0.8c1.7-1.1,3-3.4,5.3-5.1c1.7-1.2,4.3-2,6.4-3.7
			c0.6-0.6,0.8-1.4,1.4-2.2c1.7-2,3.6-3.4,5.3-5.1c3-2.6,5.3-4.8,7-7.1c1.6-2.3,3.9-5.6,6.1-2.6c0.5,0.5-0.8,0.9-0.6,1.1
			c0.2,0.2,1.7,0.2,1.7,0.3c0.2,1.9-2.2,3.3-3.3,5.1c0.5,0.2,0.6,0.6,0,0.6v-0.6c-0.2-0.2-0.5,0-0.6,0.5c0.2,0.2,0.5,0.2,0.6,0.2
			c0,0.5-0.6,0.6-0.6-0.2c-2.3,1.1-2.8,2.5-4,4.2c-2,3-5.4,6.2-7.5,8.2c-0.5,0.5-0.3,1.2-0.8,1.7l-2,2.6c-1.2,1.2-3.1,2.2-3.9,3
			c-0.5,0.5-0.3,1.2-0.8,1.7c-1.7,1.1-2.3,0.2-3.1,1.2c-0.5,0.5-0.9,0.6-1.4,1.1c-0.6,0.8-0.8,2.2-1.6,3.3c-0.8,1.1-2.6,1.9-3.9,3
			c-2.3,2-3.7,3.3-5.7,3.9c-3.6,1.1-7.8,0-9.6-1.9l-1.6-1.4c-2.5-3-4.2-7.9-4.2-12.1c0-11.2,6.5-23.5,9-33.1
			c-2.6-0.2-3.7,2.5-5.1,3.9c-1.4,1.4-2.6,2.6-3.4,3.7C303.3,195.4,302.8,196.2,301.8,196.7c0.5,0,0.6,0.6,0,0.6V196.7z
			 M262.1,237.4c0,0.5,0.5,0.6,0.6,0C262.8,236.9,262.1,236.7,262.1,237.4z M270.1,208.2c0,0.5,0.5,0.8,0.6,0.2
			C270.7,207.9,270.1,207.5,270.1,208.2z M271.5,206c-0.2-0.2-1.1,0-0.6,0.5C271,206.9,271.9,206.5,271.5,206z M271,227.4
			c-0.2,0.6,0.3,1.7,0.5,0.6C271.6,227.6,271.5,226.3,271,227.4z M274.3,193.6c0.6-2.3,1.9-4.2,0.5-2.8c-1.1,1.1-1.2,2.5-1.7,3.9
			l-1.2,4.5c-0.5,2.5-1.6,8.5,0.2,4C273,200.2,273.6,196,274.3,193.6z M273.8,236.6c-0.2-0.2-0.8,0-0.6,0.5
			C273.3,237.2,274.3,237.1,273.8,236.6z M274,217.9c0-0.3,0.3-4.2-0.2-3C272.7,217.3,273.5,218.6,274,217.9z M274.7,234.3
			c-0.2-0.2-1.1,0.2-0.6,0.6C274.3,235,275.2,234.7,274.7,234.3z M276.1,188.1c0.2-0.5-0.5-0.8-0.5-0.2
			C275.5,188.4,276.1,188.7,276.1,188.1z M275.7,210c1.2,0,0.6-2.8,1.1-3.9C275.4,206.1,276.1,208.9,275.7,210z M277.8,201.6
			c-0.2,0.6,0.3,1.7,0.5,0.6C278.8,201.6,278.3,200.6,277.8,201.6z M279.1,174.5c0.2-0.5-0.5-0.6-0.5,0
			C278.5,174.9,279.1,175.2,279.1,174.5z M280,172.3c0.2-0.6-0.3-1.7-0.5-0.6C279.4,172.3,279.5,173.4,280,172.3z M280.6,193.9
			c-1.2-0.2-0.5,2-0.9,2.8C280.9,197.1,280.2,194.6,280.6,193.9z M281.1,211.9c-0.2,0.5-0.8,1.6-0.8,1.7
			C279.5,217.5,283.4,209.6,281.1,211.9z M280.9,169.5c0-0.5-0.5-0.6-0.6,0C280.3,169.9,280.9,170.3,280.9,169.5z M280.6,193.9
			c1.2,0.5,0.5-2,0.9-2.8C280.3,190.9,281.1,193.1,280.6,193.9z M281.1,167.8c0.2,0.5,0.9,0,0.8-0.5
			C281.7,167.2,280.9,167.3,281.1,167.8z M282.2,164.5c-0.5,0.8,0,2.3,0.5,1.2C282.8,165,282.7,163.4,282.2,164.5z M282.2,208.6
			c-0.5,0.8,0,2.3,0.5,1.2C282.8,209.1,282.7,207.5,282.2,208.6z M284.8,210.2c0-0.5-0.8,0-0.6,0.5
			C284.4,210.8,285.3,210.6,284.8,210.2z M285.6,209.1c-0.2-0.2-1.1,0-0.6,0.5C285.1,209.7,286.1,209.6,285.6,209.1z M287.5,173.4
			c0.2,0.2,1.1-0.2,0.6-0.6C287.9,172.6,287,172.9,287.5,173.4z M289.2,186.9c0-0.5-0.6-0.8-0.6,0
			C288.6,187.3,289,187.5,289.2,186.9z M289.5,184.1c0.2,0.2,1.1-0.2,0.6-0.6C290,183.3,289,183.6,289.5,184.1z M291,181.3
			c0-0.5-0.5-0.6-0.6,0C290.4,181.8,290.9,181.9,291,181.3z M291.5,186.6c-0.5,1.1-0.6,0-0.5-0.6
			C291.2,184.9,291.7,185.9,291.5,186.6z M291.5,177.9c0.2,0.2,0.8,0,0.6-0.5C292,177.2,291,177.4,291.5,177.9z M292.9,175.2
			c0.2-0.5-0.5-0.8-0.5-0.2C292.4,175.5,292.9,175.9,292.9,175.2z M296.9,193.7c0,0.2,0,0.5-0.2,0.6
			C296.3,194.2,296.3,193.7,296.9,193.7z M307.2,212.5c-1.7,1.2-1.9,14.4-0.6,4.5C307,215.6,307,213.9,307.2,212.5z M305.8,222.8
			c0,0.5,0.6,0.8,0.6,0C306.4,222.3,306,222.1,305.8,222.8z M307.7,183c-0.2-0.5-1.1,0-0.6,0.5C307.2,183.6,307.8,183.5,307.7,183z
			 M307.2,212.5c1.4-0.5,0.6-3.3,1.2-4.5C307,208.5,307.8,211.1,307.2,212.5z M313.3,193.6c0.5-1.7,0-2.2,1.1-3.9
			c0-0.2,0.2-0.3,0.3-0.5c0.2-0.2,0.2-0.2,0.3-0.2c1.2-5.4-1.7,1.4-3,4.3c-0.8,2.3-2.2,5.3-2.6,6.7c-0.2,0.8,0.5,2.2,0.3,2.8
			c-0.2,0.8-1.7,3.7-1.2,5.1C309.5,206.1,311.7,198.4,313.3,193.6z M308.7,222.6c-0.8,2-0.2,2.8,0.3,1.7
			C309.1,224.2,309.2,220.7,308.7,222.6z M309.8,218.7c-0.2,0.6,0,2.2,0.5,1.1C310.8,219,310.3,217.6,309.8,218.7z M313.3,206.9
			c-0.5,0.6,0,1.7,0.5,0.6C313.9,206.9,313.4,205.8,313.3,206.9z M314.5,205.4c0.2-0.6,0-1.7-0.5-0.6
			C313.9,205.2,314.3,206.1,314.5,205.4z M315,228c0-0.2-0.8,0-0.6,0.5C314.5,228.7,315.4,228.5,315,228z M315.4,233.3
			c0-0.2-0.8,0-0.6,0.5C315,233.9,315.9,233.8,315.4,233.3z M315,202.4c0,0.5,0.5,0.8,0.5,0.2C315.6,202.1,315,201.8,315,202.4z
			 M315.9,185.8c0.5-0.6,0-1.7-0.5-0.6C315.3,185.8,315.7,186.9,315.9,185.8z M315.7,200.2c-0.2,0.6,0.2,1.7,0.6,0.6
			C316.5,200.4,316.2,199.2,315.7,200.2z M316.2,184.1c0.2,0.2,1.1,0,0.6-0.5C316.7,183.5,315.7,183.6,316.2,184.1z M316.5,225.4
			c0.2,0.2,1.1-0.2,0.6-0.6C317.1,224.6,316.4,224.9,316.5,225.4z M317.3,233c-0.2-0.2-1.1,0-0.6,0.5
			C316.8,233.6,317.8,233.5,317.3,233z M316.7,198.1c-0.2,0.6,0.3,1.7,0.5,0.6C317.3,198.1,317.1,197,316.7,198.1z M318.1,196.5
			c0-0.5-0.5-0.8-0.6-0.2C317.4,196.8,317.9,197.1,318.1,196.5z M318.5,179.7c0-0.5-0.5-0.8-0.6-0.2
			C317.9,180,318.4,180.4,318.5,179.7z M319,233.2c-0.2-0.2-1.1,0-0.6,0.5C318.5,234.1,319.5,233.6,319,233.2z M318.4,194.2
			c-0.2,0.5,0.5,0.8,0.5,0.2C319,193.9,318.4,193.6,318.4,194.2z M319.8,192.6c0-0.5-0.6-0.6-0.6,0
			C319.2,193.1,319.6,193.2,319.8,192.6z M320.6,190.5c0-0.5-0.5-0.8-0.6-0.2C319.9,190.8,320.6,191.1,320.6,190.5z M320.9,205.5
			c-0.2-0.2-1.1,0.2-0.6,0.6C320.4,206.3,321.3,206,320.9,205.5z M320.9,188.7c0.2,0.2,0.8,0,0.6-0.5
			C321.3,188.1,320.4,188.3,320.9,188.7z M324.9,175.4c0.2,0.2,1.1,0,0.6-0.5C325.4,174.5,324.4,174.9,324.9,175.4z M325.1,170.1
			c0.2,0.2,0.8,0,0.6-0.5C325.5,169.5,324.6,169.6,325.1,170.1z M351.2,205.5c0.2,0.5-0.6,0.6-0.6,0.5
			C350.1,205.5,351,205.4,351.2,205.5z M353.2,202.9c0,0.8-0.5,1.4-1.4,1.6C351.9,203.7,352.4,203,353.2,202.9z"/>
		<path class="st1" d="M388.9,182.4c0.6,0,0.5-0.5,0-0.5c0.5-1.7,5-2.8,2.3-4c-3.6,0.8-7.8,0-11,1.7c-0.5,0.2-0.6,0.9-1.1,1.1
			c-3,0.6-6.7,0.2-10.4,0.6c-1.4,0.2-2.3,0.8-4,0.6c-4.5-0.6-5.3-2.5-5.7-7.6c0-0.2,0-4,0-4c0.5-0.5,9-1.7,15.1-2.2
			c5.4-0.5,8.4-0.2,13.2-0.6c6.7-0.5,14-2.2,16.6-1.1c1.4,0.5,1.1,1.6,1.7,2.2c0.5,0.5,1.6,0.2,1.7,0.6c0.5,0.6-0.6,1.2-0.5,1.7
			c0,0.5,1.1,0.6,1.1,1.7c0,4.8-2.3,4-4.5,7c0.9,2.6-2.3,3.4-4,5.1l-5.3,5.1c-0.5,0.5-1.2,0.2-1.7,0.6c-0.5,0.5-0.6,1.2-1.1,1.7
			c-0.5,0.5-1.2,0.2-1.7,0.6c-1.7,1.1-2.8,3-4,4c-1.1,1.1-1.9,2.2-3,2.8c-0.8,0.6-1.9,0.8-2.3,1.2c-0.5,0.5-0.6,0.2-1.1,0.6
			c-0.6,0.5,0,1.6-0.6,2.2c-0.2,0.2-0.9,0-1.1,0c-0.5,0.5-1.7,1.7-1.7,1.9c-2,1.6,0,0-1.7,0l-0.5,0.5c-0.5,0.5-0.6,0.6-0.8,0.6h1.2
			c-0.5,2-2.3,3.1-4.7,5.1c-1.7,1.7-3,3.9-4.7,5.3c-0.8,0.6-2,0.9-2.8,1.7c-3,2.3-5.1,5.4-7.5,7.5c8.2-1.7,19.1-4.2,27-4.7
			c6.1-0.5,16.2-0.6,17.9,2.3c0.8,1.7-0.8,3.4-0.6,4c0,0.2,1.1,0.5,0.6,1.1c-0.2,0.5-1.1-0.2-1.2,0c-0.2,0.2,0.2,1.1,0,1.2
			c-1.1,0.8-8.9,1.1-9.8,1.1c-5,0.8-11.7,0.6-15.5,1.7l-0.5,0.6c-0.2,0.2-0.2,0.5-0.2,0.6c-1.1,0.2-1.7-0.5-2.8,0
			c-1.1,0.2-1.9,0.9-3,1.1c-2.3,0.6-4.8,0.8-6.8,1.2c-2.5,0.6-4.7,1.7-7,2.2c-0.8,0.2-1.1-0.5-1.7-0.5c-2.5-0.2-3.7,1.2-5.7,2.3
			c-0.8,0.5-2.8,1.6-4,1.1c-1.4-0.5-1.1-5.6-1.1-5.1c-0.8-1.7-2.3,0.8-2.3-1.7c-0.2-3.7,2.2-5.1,3.4-7c0.6-0.6,0.8-1.9,1.2-2.3
			c3-3.6,7-6.4,10.3-10.3c1.7-2,3-4,4.7-5.9c5.1-5.4,11.3-10.1,16.8-14.9c1.9-1.7,3.9-3,5.7-4.7c1.9-1.7,3.1-4.3,5.7-5.1v0.6
			c0.3,0,0.5-0.2,0.5-0.6h-0.5c0-0.5,0.2-0.6,0.5-0.6v0.6c0.6-0.2,0.5-0.6,0-0.6c0.6-0.8,0.9-1.7,2.3-1.7v0.6
			C388.7,183.2,388.9,182.8,388.9,182.4h-0.6c0.2-0.5,0.5-0.6,0.6-0.5V182.4z M344.6,238.8c-3-0.5-3,1.1,0,0.6V238.8z M346.3,234.9
			c-0.2-0.5-1.1,0-0.6,0.5C345.9,235.5,346.5,235,346.3,234.9z M346.3,238.3c-0.2-0.2-1.1,0.3-0.6,0.5
			C345.9,238.9,346.5,238.8,346.3,238.3z M348.5,234.3c-0.2-0.2-1.6,0.2-1.1,0.6C347.6,235,349,234.7,348.5,234.3z M349.8,237.7
			c-0.5-0.5-2.2,0.2-1.7,0.6C348.5,238.8,350.2,238.1,349.8,237.7z M349.8,233.6c-0.2-0.2-1.1,0.2-0.6,0.6
			C349.3,234.4,350.2,234.1,349.8,233.6z M350.4,230.2c-0.5-0.2-1.1,0.2-0.6,0.6C349.9,231,350.5,230.7,350.4,230.2z M350.8,233.6
			c0.2,0.2,1.1-0.2,0.6-0.6C351.3,232.9,350.4,233.2,350.8,233.6z M352.1,237.1c-0.2-0.2-1.7,0.2-1.2,0.6
			C351,237.8,352.6,237.5,352.1,237.1z M352.1,229.6c-0.2-0.2-1.1,0.2-0.6,0.6C351.6,230.4,352.6,230.1,352.1,229.6z M353.8,229
			c-0.2-0.2-1.1,0.2-0.6,0.6C353.3,229.8,354.3,229.4,353.8,229z M353.8,236.6c-0.2-0.2-1.1,0-0.6,0.5
			C353.3,237.2,354.3,237.1,353.8,236.6z M354.9,229c0.2,0.2,1.4,0,1.2-0.5C356,228.4,354.4,228.8,354.9,229z M354.9,236.6
			c0.2,0.2,1.4-0.2,1.2-0.6C356,235.8,354.4,236.1,354.9,236.6z M356.6,228.5c0.2,0.2,1.7-0.2,1.2-0.6
			C357.7,227.7,356.1,228,356.6,228.5z M357.8,235.3c-0.2-0.2-1.1,0.2-0.6,0.6C357.4,236.1,358.3,235.8,357.8,235.3z M358.3,227.9
			c0.5,0.5,2-0.2,1.9-0.6C359.7,226.8,358.1,227.4,358.3,227.9z M359.5,234.9c-0.2-0.5-1.1,0-0.6,0.5
			C359.1,235.5,360,235,359.5,234.9z M360.2,231.3c-0.5-0.2-1.1,0.2-0.6,0.6C359.7,232.1,360.3,231.8,360.2,231.3z M364.7,175.5
			c-0.5-0.5-3.6-0.2-2.8,0.6C363,177.2,364.8,175.5,364.7,175.5z M363.6,234.3c0.2,0.2,0.8-0.2,0.6-0.6
			C363.7,233.5,363.1,233.8,363.6,234.3z M365.9,230.2c0.2,0.2,0.9-0.2,0.5-0.6C366.2,229.4,365.4,229.8,365.9,230.2z M365.9,233.6
			c0.2,0.2,0.9-0.2,0.5-0.6C366.2,232.9,365.4,233.2,365.9,233.6z M366.4,226.8c0.2,0.2,1.7-0.2,1.2-0.6
			C367.5,226,366.2,226.3,366.4,226.8z M368.1,226.2c0.2,0.2,1.1,0,1.2,0C373.1,226.2,367.2,225.2,368.1,226.2z M370.4,232.5
			c-0.5-0.5-2.2,0.3-1.7,0.5C369.2,233.5,370.9,233,370.4,232.5z M371.7,179.6c-0.2-0.2-1.7,0.3-1.2,0.5
			C370.6,180.2,372.1,180,371.7,179.6z M371.7,207.7c-0.5,0-0.6,0.2-0.6,0.6C371.5,208.5,371.7,208.2,371.7,207.7z M371.7,225.6
			c0.2,0.2,1.2,0,1.7,0C378.6,225.6,370.3,224.6,371.7,225.6z M372.1,207.2c-0.3-0.2-0.5,0-0.5,0.5
			C372,207.9,372.1,207.7,372.1,207.2z M373.4,231.9c-0.2-0.2-1.4,0.2-1.2,0.6C372.6,232.7,373.8,232.4,373.4,231.9z M372.7,206.6
			c-0.2-0.2-0.5,0.2-0.6,0.6C372.6,207.2,372.7,207.1,372.7,206.6z M377.9,231.3c-0.5-0.5-3.6-0.2-2.8,0.6
			C376.2,233,378,231.3,377.9,231.3z M376.2,179c-0.2-0.2-1.6,0.2-1.1,0.6C375.2,179.7,376.6,179.4,376.2,179z M375.7,169.2
			c0.2,0.2,2,0,2.2,0C383.3,168.7,374.5,168.4,375.7,169.2z M375.7,172.6c0,0.2,0.9,0,1.1,0C380.5,172.6,374.8,171.7,375.7,172.6z
			 M375.7,225.1c0.5,0.2,2.3,0,2.8,0C385,224.6,374.9,224,375.7,225.1z M379.1,178.3c-0.2-0.2-1.1,0.2-0.6,0.6
			C378.6,179.1,379.6,178.8,379.1,178.3z M379.7,231.3c0.2,0.5,2.2-0.3,1.7-0.5C381,230.4,379.3,230.8,379.7,231.3z M381.9,224.5
			c0.5,0.3,6.4,0,6.4,0C394.5,224,380.8,223.4,381.9,224.5z M383.2,227.3c-0.2-0.2-1.1,0.2-0.6,0.6
			C382.7,228,383.6,227.7,383.2,227.3z M383.8,168.5c0.2,0.5,1.7,0,2.2,0C391.4,168.1,382.5,167.8,383.8,168.5z M385.5,230.8
			c3.7-0.5-2-0.8-1.2,0H385.5z M386.6,177.2c-0.2-0.2-0.8,0.2-0.6,0.6C386.1,178,387,177.7,386.6,177.2z M388.3,183
			c0,0.5-0.2,0.6-0.6,0.6C387.8,183.2,388.1,182.8,388.3,183z M390.6,168.1c0.5,0.2,1.9,0,2.3,0C398.2,167.6,389.5,167,390.6,168.1z
			 M392.3,170.9c-0.5-0.5-2.2,0.2-1.7,0.6S392.8,171.3,392.3,170.9z M392.3,223.9c0.2,0.2,1.4-0.2,1.2-0.6
			C393.1,223.1,391.9,223.4,392.3,223.9z M397.9,171.7l1.9-0.8c-0.6-0.3-5.3,0.3-4.5,0.6C395.9,172.1,396.8,172.1,397.9,171.7z
			 M396.4,224.5c0.2,0.2,1.1-0.2,0.6-0.6C396.8,223.7,395.9,224,396.4,224.5z M399.8,182.4c-0.2-0.2-0.9,0.2-0.5,0.6
			C399.5,183.2,400.2,182.8,399.8,182.4z M399.3,167.5c0,0.2,0.9,0,1.1,0C404.1,167.5,398.4,166.5,399.3,167.5z M403.3,179.6
			c0,0.5-0.2,0.6-0.6,0.5C402.7,179.6,402.9,179.4,403.3,179.6z"/>
		<path class="st1" d="M465.9,200.9c-0.5,0.2-0.8,0.2-1.1,0c-0.2,0-0.5,0-0.6-0.2c-3.4,2.5-4.5,4.5-8.1,5.7c-0.2,0-0.3,0.9-0.8,1.1
			c-3.1,1.9-6.1,3-9,3.7c-0.6,0.5-1.4,0.9-1.9,1.1c-0.8,0.2-3.6-0.6-4.7,0.2c-1.2,0.8-1.7,3.7-3,6.1c-0.5,0.8-1.6,1.6-2,2
			c-0.5,1.1-0.3,2.5-0.8,3c-0.2,0-1.1-0.3-1.2-0.2c-0.5,0.5,0.5,0.5,0.6,0.6c0,0.9-2.8,3.6-2.8,3.3c2.2-3.9-0.3-3-1.1,0.5
			c-0.6-0.2-0.6,0.6-0.8,1.1h0.6c0.2,2.3-1.9,1.1-1.9,0.9c-0.5,0.5-0.3,1.2-0.8,1.7c-1.4,1.7-3.9,3-5.6,3.6c-0.2,0-0.5,0.9-0.6,1.1
			c-0.8,0.5-2-0.3-2.5,0.9c-1.7-1.2-2,1.1-0.9,0.6c-2,1.1-4.3,0.5-6.7,0.3c-0.8,0-1.9,0.5-2.3,0.5c-2.3-0.5-3.6-2.2-4.4-2.8
			c-0.5-0.5-1.2-0.3-1.7-0.8c-4.5-3.6-7.3-9.8-6.8-16.8c0.5-6.1,3.4-11,4.7-15.8c1.1-3.7,1.1-5.4,2.2-8.4c0.2-1.1,0.6-2,0.8-2.8
			c0.5-1.1,0.9-2.8,0.9-3c0.6-1.1,2.5-0.9,3.1-1.4c1.1-1.1,1.1-3.3,2.2-5c1.9-3.3,3.6-4.5,5.9-6.4c1.4-1.1,2.2-2.5,3.3-2.6
			c2-0.6,2,1.4,3.3,1.6c1.7,0,2.3-1.6,3.7-2c1.7-0.6,4-0.5,5.7,0c4.8,1.1,10.1,5.1,12.4,8.7c0.8,1.4,0.5,3.9,1.1,4.7
			c1.1,1.7,0.6,0.2,0.5,1.9c-0.2,0.8,0.9,0.8,0.9,1.2c0.5,1.7,0.2,4,0,5.1c-0.5,3-1.9,4.3-2.3,6.7c-0.5,1.1,0.5,2.8,0,4.2
			c0,0.5-0.6-0.6-0.5-0.6c-0.5,0-1.1,0.6-0.6,1.1c1.9,1.9,12.4-3.6,14.4-5.6c0,0.6,0.5,0.5,0.6,0c1.2-2,3.9-1.4,5.6-2.5
			c1.9-1.4,7-3.9,7-1.1C473.4,197,466.4,200.4,465.9,200.9z M399.3,213.3c-1.1,2-0.9,6.8-0.9,8.5c0,4.5,1.1-2.5,1.1-4.5
			C399.5,216.1,400.2,211.4,399.3,213.3z M400.2,210.5c-0.5,0.8,0,2.2,0.5,1.1C400.9,210.8,400.7,209.4,400.2,210.5z M401.5,208.8
			c0.2-0.6,0-1.7-0.5-0.6C400.9,208.8,401.3,209.9,401.5,208.8z M402.3,217.8c1.2-13.4-1.2,7.3-0.8,7.8c0,0.2,2-9.3,2.2-10.1
			c0.5-1.1,0.3-2.2,0.5-3.6C403,213,402.7,215.5,402.3,217.8z M402.4,206c0-0.5-0.5-0.6-0.6,0C401.8,206.5,402.4,206.6,402.4,206z
			 M402.3,217.9c0,1.1-0.2,1.7-0.3,3L402.3,217.9z M401.9,220.9v0.6V220.9z M402.6,204.3c0.2,0.2,1.1,0,0.6-0.5
			C403.2,203.7,402.4,203.8,402.6,204.3z M403.3,192.2c0.2,0.2,1.1,0,0.6-0.5C403.8,191.5,402.9,191.7,403.3,192.2z M404.7,190.6
			c0.2-0.6-0.2-1.7-0.6-0.6C404.1,190.6,404.3,191.7,404.7,190.6z M404.9,188.9c0.2,0.2,1.1-0.2,0.6-0.6
			C405.4,188.1,404.4,188.4,404.9,188.9z M405.4,220.7c-0.5,1.1-0.3,3-0.3,4C404.3,233.5,406.6,218.1,405.4,220.7z M434.3,211.3
			c0,0.2-3-1.4-2.8-1.4c-1.7-0.8-3.3-1.1-5-2.2c-2.3-1.4-3.9-3.7-5.7-5.7c-2-2.3-3.7-5.6-5.4-2.2c-2.6,1.4-2.6,6.1-5,7.6
			c-0.2,3-1.4,4.8-2.5,6.7c-1.1,4.5-1.7,9.5-2.2,14.9c-1.6,0-0.3,1.4,0,0.6c0.5,6.2,7,2.8,11.5-0.2c0.2-0.2,0.6-1.1,0.8-1.1
			c0.5-0.2,0.6,0.2,1.1,0c0.5-0.5,0.8-1.1,1.4-1.6c0.6-0.5,1.2,0,1.7-0.5c0.2-0.2,0-0.9,0.2-1.1c0.2-0.2,0.9,0.3,1.1,0.2
			c0.5-0.5,0.3-1.2,0.8-1.7c0.5-0.5,1.1-0.6,1.2-1.1c0.5-0.5,0.3-1.1,0.8-1.6c0.5-0.5,1.1-0.3,1.2-0.5c0.6-0.8,0.8-2,1.4-2.8
			c0.8-0.6,3.1-1.4,3.3-2.6c0-0.2-0.3-1.1-0.5-0.6l1.1-0.9c-0.2,0.2-0.8-0.3-0.3-0.8C432.2,213,434.7,212.4,434.3,211.3z M405,208
			c-0.2,0.6,0.2,1.7,0.6,0.6C405.8,208,405.5,206.9,405,208z M406.4,206.5c0-0.5-0.5-0.8-0.6-0.2
			C405.8,206.8,406.3,207.1,406.4,206.5z M407.1,216.2c0-0.5-0.5-0.6-0.6,0C406.4,216.7,407.1,217,407.1,216.2z M406.6,204.7
			c0.2,0.2,1.1-0.2,0.6-0.6C407.1,204,406.1,204.3,406.6,204.7z M407.4,203c0.2,0.2,1.1-0.2,0.6-0.6
			C407.8,202.3,406.9,202.6,407.4,203z M408.2,201.3c0.2,0.2,1.1,0,0.6-0.5C408.6,200.7,407.7,200.9,408.2,201.3z M408.9,210.6
			c-0.2-0.2-0.9,0-0.8,0.5C408.3,211.6,409.1,211.1,408.9,210.6z M409.6,208.9c0.2-0.5-0.5-0.6-0.5,0
			C408.9,209.4,409.6,209.7,409.6,208.9z M410,237.4c0.2,0.5,1.7,0.3,2.2,0.3C417.5,237.7,409.2,236.1,410,237.4z M410.6,205.7
			c0,0.2,0.8-0.2,0.6-0.6C411.1,204.9,410.2,205.2,410.6,205.7z M412,203.5c0-0.5-0.6-0.8-0.6-0.2
			C411.4,203.8,411.9,204.1,412,203.5z M412,202.3c0.2,0.2,1.1,0,0.6-0.5C412.7,201.6,411.9,201.8,412,202.3z M415.8,237.4
			c-0.2-0.2-1.4,0-1.2,0.5C414.7,238,415.9,237.8,415.8,237.4z M417.2,237.7c0.2,0,0.2-0.2,0.3-0.2
			C417.3,237.5,417.3,237.5,417.2,237.7z M417.8,197.6c0.2,0.2,1.1,0,0.6-0.5C418.3,197,417.3,197.1,417.8,197.6z M418.1,173.8
			c0.2,0.5,1.1,0,0.6-0.5C418.6,173.2,417.6,173.4,418.1,173.8z M421.4,192.2c0.2,0.2,0.8,0,0.6-0.5
			C421.8,191.5,420.9,191.7,421.4,192.2z M421.8,193.4c-0.2,0.5,0.5,0.6,0.5,0C422.3,192.9,421.8,192.8,421.8,193.4z M440.3,198.1
			c1.2-5.1,1.1-10.4-0.3-13.4c-1.7-3.6-3.1-6.5-6.1-7.6c-0.2,0-0.3,0.2-0.5,0.3c-0.2,0.2-0.2,0.2-0.2,0.3c-1.2-0.2-2.5,0.3-4.2,0.8
			c-1.7,0.5-3,0.5-3.6,1.9c-0.5,0.8,1.9,0.2,1.7,0.2c-0.5,0,1.1-0.9,1.6,0.8c0,0.6-3,5.1-3,5c-1.2,1.7-2.8,2.6-3.3,4.3
			c-0.2,1.1,0.5,4.7,1.6,7c0.5,1.1,1.4,1.4,2,2.5c0.5,0.6,0,1.4,0.5,1.9c0.5,1.1,1.4,0.9,2.2,1.4c0.2,0,0.2,0.9,0.3,1.1
			c0.2,0.2,0.6,0.3,1.1,0.5l0.6,0.3c0.5,0.2,1.6,0.8,1.7,0.8c5,1.2,4.8-0.3,6.1-3.6L440.3,198.1z M430.7,227.3
			c0,0.8-0.5,1.4-1.2,1.6c0-0.5,0-0.9,0.2-1.1C430.1,227.7,430.2,227.3,430.7,227.3z M429.9,176.8c0.2,0.2,1.1,0,0.6-0.5
			C430.4,175.9,429.7,176.3,429.9,176.8z M439.7,203.8c-0.2-0.5-1.1,0-0.6,0.5C439.2,204.4,440.2,204.3,439.7,203.8z M440,200.9
			c0,0.5,0.5,0.8,0.6,0C440.6,200.4,440,200.2,440,200.9z M441.2,195.3c-0.5,0.6,0,2.2,0.5,1.1C441.9,195.6,441.7,194.2,441.2,195.3
			z M456.9,199.6c0-0.5,0.5-0.6,0.6,0H456.9z"/>
	</g>
	<g>
		<path class="st1" d="M363.5,259.1c-13.8-0.9-35.1-0.6-52.5-0.6c-13.5,0.9-30.8,0.8-45.7,0.2c-0.3,0.9,3.5,0.2,4.7,0.4
			c-5.6,0.9-12.1-0.6-19.1-0.2c-0.2,0.8,3.4,0.3,4.7,0.3c-16.1,0.8-33.6,2.5-49.7,1.7c-0.8,0.1-1.9,0-2,0.3c0.6,0,1.2,0.3,0,0.4
			c-2.8-0.3-9-0.9-10.5,0.2h2.8c-6.4,1.6-16.9,1.1-24,2.4c-4.4,0.3-8,0.8-12.5,0.9c-1.7,0.3-4.7,0.1-5.7,0.7
			c-3.7-0.3-2.5,1.2-4.8,0.3c-0.6,0-1.2,0-0.9,0.3c-1,0-2.5,0.1-1,0.4c-0.3,1.2-3.5-1-3.8,0.2c-3.3,0.1-6.1,0.2-7.8,1h-2.8
			c0.1,0.4,1.6,0.3,2.8,0.4c-4,1.2-9.2,1.8-14.5,2.4c-4.8,0.8-9.1,2.2-15.4,1.3c-1.8-3-0.3-5.5,1.6-8.1c16.3-3.9,37.8-6.2,59.8-8.1
			c32.4-2.7,70.7-4.6,107.2-5.5l21.9,0.2c2.7,0.3,2.6-0.3,4.8-0.3c47.3,0.3,91.4,1.8,121.5,8.3c3.5,1.7,7.1,3,9.2,5.2
			c0.3,1.9-2.5,1.8-3.1,3.3c-6.9,0-9.7-1.5-14-2.4c-0.8-0.1-1.9,0-1.9-0.3c-3-0.3-5.5-0.8-7.5-1.6c-11.2-1.5-23.8-2.5-37-3.3
			c0.3-0.4,1.6-0.4,2.9-0.3C370.6,258.7,365.8,259.5,363.5,259.1c-0.3,0.4-2.4,0.2-3.8,0.2C360.1,258.9,362.1,259.1,363.5,259.1z
			 M119.9,262.7c-0.3-0.1-1.5,0.2-0.9,0.3C119.3,263.2,120.5,263.1,119.9,262.7z M124.2,270.1c-0.3-0.1-1.5,0-1,0.3
			C123.5,270.6,124.6,270.3,124.2,270.1z M126.1,269.8c-0.3-0.1-1.5,0-0.9,0.3C125.5,270.3,126.6,269.9,126.1,269.8z M128.1,269.5
			c-0.3-0.1-1.5,0-1,0.3C127.4,269.9,128.6,269.6,128.1,269.5z M130,269c-0.3,0-1.5,0.1-1,0.4C129.3,269.6,130.5,269.4,130,269z
			 M132.5,261c-0.8,0.1-1.9,0-1.9,0.3C131.4,261.3,132.4,261.4,132.5,261z M131.9,268.7c-0.3-0.1-1.5,0.1-1,0.4
			C131.3,269.1,132.4,269,131.9,268.7z M135.7,268.3c1.7,0,2.4,0.4,0,0.4V268.3z M138.7,268.5c-0.6-0.3,0.6-0.4,0.9-0.3
			C140.1,268.2,139,268.6,138.7,268.5z M141.5,268.1c-0.4-0.3,0.7-0.4,1-0.3C142.9,267.9,141.8,268.2,141.5,268.1z M148.8,259.8
			c-0.3-0.1-1.5,0-1,0.3C148.1,260.3,149.2,259.9,148.8,259.8z M151.5,261.9c-0.3-0.1-1.5,0.2-1,0.3
			C150.8,262.4,151.9,262.3,151.5,261.9z M152.6,259.5c-0.8,0-1.8,0-1.9,0.3C151.5,259.7,152.6,259.8,152.6,259.5z M155.3,261.6
			c-0.8,0.1-1.9,0-1.9,0.4C154.2,261.9,155.3,262.1,155.3,261.6z M155.5,259.1c-0.8,0-1.9,0-1.9,0.3
			C154.4,259.4,155.4,259.5,155.5,259.1z M158.2,261.3c-0.8,0.1-1.9,0-1.9,0.4C157.1,261.6,158.2,261.7,158.2,261.3z M159.3,258.8
			c-0.8,0-1.9,0-1.9,0.3C158.2,259,159.3,259.1,159.3,258.8z M162,261c-0.8,0-1.9-0.1-1.9,0.3C160.9,261.3,162,261.4,162,261z
			 M162.3,258.5c-0.8,0-1.9,0-1.9,0.3C161.1,258.7,162.2,258.8,162.3,258.5z M165.9,260.7c-0.8,0-1.8,0-1.9,0.3
			C164.7,260.9,165.9,261,165.9,260.7z M166.1,258.1c-0.8,0.1-1.9,0-1.9,0.3C165,258.3,166,258.5,166.1,258.1z M169.8,260.4
			c-1.2,0-2.8-0.1-2.9,0.3C168.1,260.6,169.5,260.8,169.8,260.4z M169.9,257.8c-1.2,0-2.6-0.1-2.9,0.3
			C168.2,258.1,169.6,258.2,169.9,257.8z M173.6,260c-1.2,0-2.6-0.1-2.9,0.3C171.9,260.3,173.3,260.5,173.6,260z M178.3,259.7
			c-1.2,0-2.7-0.1-2.8,0.3C176.8,260,178.2,260.1,178.3,259.7z M179.5,257.1c1.2,0,2.6,0.1,2.9-0.3
			C181.1,256.9,179.8,256.8,179.5,257.1z M181.3,259.4c-0.3-0.1-1.5,0-1,0.3C180.6,259.8,181.7,259.7,181.3,259.4z M182.9,261.9
			c-0.8,0.1-1.8,0-1.9,0.3C181.8,262.2,182.9,262.3,182.9,261.9z M186.8,261.6c-0.8,0.1-1.8,0-1.9,0.3
			C185.6,261.9,186.8,261.9,186.8,261.6z M187.2,256.5c-0.3-0.1-1.5,0-1,0.3C186.5,257,187.7,256.7,187.2,256.5z M189.7,261.3
			c-0.8,0.1-1.9,0-1.9,0.3C188.6,261.6,189.7,261.6,189.7,261.3z M189.7,262.1c-0.8,0.6,4.5,0.7,3.8,0H189.7z M192.6,260.9
			c-0.3-0.1-1.5,0.2-1,0.3C191.9,261.4,193.1,261.3,192.6,260.9z M201.5,255.9c-0.8,0.1-1.8,0-1.9,0.3
			C200.4,256.2,201.5,256.3,201.5,255.9z M210.8,260.4c-0.8,0.1-1.9,0-2,0.3C209.6,260.7,210.7,260.7,210.8,260.4z M210.9,257.9
			c-0.3-0.1-1.5,0-1,0.3C210.3,258.3,211.4,258,210.9,257.9z M224.5,254.6h-2.8c-1.2,0.1-2.6-0.1-2.9,0.3
			C220.5,255,224.3,255.4,224.5,254.6z M225.1,259.8c-1.2,0.1-2.7-0.1-2.8,0.3C223.5,260.1,225,260.3,225.1,259.8z M228.3,254.4
			c-1.2,0-2.7-0.1-2.8,0.3C226.8,254.6,228.2,254.7,228.3,254.4z M239.7,256.7h-2.9c-0.8,0.1-1.9,0-1.9,0.3
			C236.2,256.7,239.7,257.6,239.7,256.7z M241.4,259.2c-0.3-0.1-1.5,0.2-1,0.3C240.7,259.7,241.8,259.6,241.4,259.2z M248.2,256.4
			c-1.2,0-2.5,0-3.8-0.1c-1.2,0.1-2.7,0-2.8,0.3C243.5,256.7,247.7,257.2,248.2,256.4z M243.6,254.2c1.2-0.1,2.6,0.1,2.9-0.3
			C245.3,253.8,244,253.7,243.6,254.2z M262.6,256.2c-1.9,0-3.8-0.1-5.7-0.1H254c-0.8,0.1-1.8,0-1.9,0.3c1.9,0,3.8,0,5.7,0.1
			C259.4,256.2,262.6,257.1,262.6,256.2z M259.6,258.3h-2.9c-1.2,0-2.7-0.1-2.8,0.3C255.5,258.5,259.3,259.2,259.6,258.3z
			 M258,253.6c-0.8,0-1.9,0-1.9,0.3c1.5-0.3,4.7,0.6,4.7-0.3H258z M274.1,256c-1.3,0-2.6-0.1-3.8-0.1h-1.9c-0.8,0.1-1.9,0-1.9,0.3
			C268.7,255.9,273.3,256.8,274.1,256z M274.9,258.1c-1.2,0.1-2.6-0.1-2.9,0.3C273.2,258.5,274.5,258.6,274.9,258.1z M276.2,253.1
			c-1.2,0-2.6-0.1-2.9,0.3h6.6c1.7,0,5.7,0.6,5.7-0.2c-2.1-0.1-4.4-0.1-6.6-0.1H276.2z M281.7,256c1.9,0,6.1,0.6,6.6-0.2
			c-2.1,0-4.4-0.1-6.6-0.1c-1.9,0.2-6.4-0.6-6.7,0.3H281.7z M287.7,252.8c18.3,0.9,40.9,0.7,60.9,1
			C330.3,252.6,307.7,253.4,287.7,252.8z M297.8,258h-5.7c-0.8,0-1.9,0-1.9,0.3C292.5,258,296.9,258.9,297.8,258z M317.8,258.2
			c1.7-0.2,5.4,0.6,5.7-0.3h-5.7c-1.7,0-5.5-0.4-5.7,0.3H317.8z M359.7,259.4c-6.1,0.6-16.2-0.6-24.8-0.2c0.8-0.8,5.3-0.2,7.6-0.2
			c3.3,0,6.4,0,9.6,0.1C355.1,259,356.2,259.7,359.7,259.4z M349.5,256c-0.8,0.1-1.9,0-2,0.3C348.3,256.3,349.4,256.3,349.5,256z
			 M362.9,254.3c-2.7-0.9-9.9-0.1-14.3-0.4C351.6,254.7,358.4,254,362.9,254.3z M360,256.4c-1.2,0.1-2.6,0-2.9,0.3
			C358.3,256.8,359.6,256.9,360,256.4z M370.5,254.4h-3.8c-1.2,0-2.7-0.1-2.8,0.2C365.8,254.6,370,255.2,370.5,254.4z M377.3,254.9
			c-1,0-1.9,0-2.9-0.1c-0.8,0.1-1.9,0-1.9,0.4C373.8,254.9,377.3,255.8,377.3,254.9z M379.1,255.5c1.2,0,2.6,0.1,2.9-0.3
			C380.7,255.3,379.4,255.2,379.1,255.5z M383.5,260c-1.2,0-2.6-0.1-2.9,0.3C381.9,260.4,383.2,260.5,383.5,260z M386.7,255.6
			c-1.2,0.1-2.6-0.1-2.9,0.3C385,256,386.4,256.1,386.7,255.6z M392.4,256.1c-0.3-0.1-1.5,0-1,0.3
			C391.8,256.5,392.9,256.4,392.4,256.1z M397.9,258.7c-1.2,0.1-2.6-0.1-2.9,0.3C396.2,259,397.6,259.1,397.9,258.7z M396.1,256.9
			c0.3,0.1,1.5-0.2,1-0.3C396.8,256.4,395.7,256.5,396.1,256.9z M401.8,259.1c-0.3-0.1-1.5,0-1,0.3
			C401.1,259.6,402.2,259.5,401.8,259.1z M409.4,257.8c-0.8,0-1.8-0.1-1.9,0.3C408.3,258,409.4,258.1,409.4,257.8z M409.1,263.2
			c-0.3-0.1-1.5,0.1-1,0.4C408.4,263.7,409.5,263.5,409.1,263.2z M411,263.6c-0.3-0.1-1.5,0-1,0.3C410.3,264.1,411.4,264,411,263.6z
			 M414.7,264.8v0.3C415.7,265.1,415.2,264.8,414.7,264.8c0-0.3-1.1-0.3-1.9-0.3v0.3H414.7z M421.3,265.5c-0.3-0.1-1.5,0.2-1,0.3
			C420.6,266,421.8,265.9,421.3,265.5z M423.2,266c-0.3-0.1-1.6,0-1,0.3C422.5,266.4,423.7,266.1,423.2,266z"/>
	</g>
	<g>
		<path class="st1" d="M80.4,196.1c-1.8,0.1-3.4,0.8-5,0.9c-3.6,0.3-5-1.1-6.9-3c-1.3-1.3-2.3-2.4-2.7-4.1c-0.7-2.6-0.6-5.7-0.3-7.5
			c0.4-1.9,1-3.9,1.6-5.6c0.6-1.4,1.2-2.7,1.8-3.6c1.4-2.4,3-5.3,4.9-6.9c1.4-1.3,2.1-1.9,3.7-3c1.4-0.9,2.8-1.7,4.5-2.4
			c1.1-0.6,1.8-0.9,2.7-0.9c1.6-0.3,3.5,0.3,4.6,1c0.7,0.6,1.3,1.7,1.9,2.6c0.6,1.1,1.4,2.4,1.4,3.3c0-0.2-0.3,1.3-0.2,1.3
			c-0.3,0.3-0.8-0.1-0.9,0.2c-0.3,0.3-0.1,0.8-0.2,1.3c-0.3,0.6-0.8,1.5-0.8,1.6c-0.3,0.3-0.3,1.4-0.5,1.7c-1.1,2-4.8,3.8-6.6,5.2
			c-0.3,0.1-0.3,0.6-0.3,0.7c-0.3,0.1-1-0.5-0.9,0.1c0-0.1,0.7,0.3,0.3,0.6c-1.4,0.9-6.3,1.8-7.4,0.8c-0.6,0.3-0.8-0.7-1.6-0.4
			c-1.1,0.4,0.3,1.4-0.4,1.6c-0.4,0.2-0.8-1.1-0.9,0.2c-0.5,1.4,0.7-0.1,0.4,1.5h-0.6c-0.1,0.3,0.2,0.4,0.1,0.7
			c-0.7,1.4-2.7,7.2-1.9,8.4c0.3,0.7,2.1,0.9,3.5,0.8c4.5-0.3,10.2-4.2,13.4-6.3c1.4-0.9,2.9-1.7,4.1-2.7c1.4-1.1,3.2-3.4,4.8-4.6
			c0.3-0.3,0.3-0.4,0.5-0.7c0.4-0.3,2.3-2.4,2.6-2.8c0.8-0.6,1.2-1.9,2.3-1.5c0.3,0-0.3,0.6-0.2,0.7c0.1,0,0.3,0,0.4-0.1
			c0.3,0,0.4-0.1,0.5-0.1c0.3,1.3-0.3,1.9-0.7,2.3c-0.3,0.3-0.7,0.2-0.9,0.4c-0.2,0.4-1.6,2.9-1.9,3.4c-0.6,0.6-1.1,0.8-1.4,1.1
			c-1,0.9-2.1,2.3-2.9,2.9c-0.4,0.3-1.2,0.8-1.4,1.1c-0.3,0.3,0.1,0.7-0.2,0.9l-0.3,0.3l-0.3,0.2c-0.3,0.3-0.5,0.3-0.9,0.4
			C88.6,191.3,84.5,193.7,80.4,196.1c0.5-0.2,0.7,0.3,0,0.3V196.1z M67.5,188.5c-0.3,1.3,0.3,1.5,0.3,0.8
			C67.9,189.1,67.5,187.5,67.5,188.5z M73,182.1c0.3,0.1-0.2,0.4-0.3,0.3C72.5,182.2,72.9,182,73,182.1z M73.7,195.6
			c0.3,0.3,3.4-0.3,3.4-0.3C80.4,194.5,73,195.1,73.7,195.6z M73.8,194c0.1,0.1,0.8-0.1,0.9-0.1C77.4,193.4,73.2,193.5,73.8,194z
			 M75.5,176.8c-0.2,0.2-1.9,1.5-0.4,1.3c-0.7,1.3,0.8,0.3,1.9-0.2c1-0.4,2.2-0.8,3.3-1.4c0.3-0.1,0.7-0.2,0.9-0.4
			c0.1-0.1,0.1-0.6,0.2-0.7c0.6-0.3,1.3-0.3,1.5-0.5c0.6-0.4,0.5-1.4,1.1-2c0.4-0.5,0.8-0.9,1.4-1.4c0.3-0.3,0.9-0.5,1.2-0.8
			c0.9-1,0.8-2.5,1.9-3.1c-0.3-0.6,0.6-0.4,0.8-0.7c0.3-0.4,0.3-0.9,0.3-1.5v-1.1c-0.7-0.9-1.9,0.5-2.4,0.7
			c-0.8,0.3-1.4,0.5-2.4,1.2c-0.3,0.3-0.3,0.4-0.5,0.7c-1.8,1.4-6.2,5.6-7.1,7.2c-0.3,0-0.2,0.3-0.3,0.6h0.3c0.3,0.8-0.3,1-0.8,1.4
			c0.3-1-2.7-0.4-1.5,0.5C74.7,176.3,75.9,175.9,75.5,176.8c0.1-0.1,0.3-0.1,0.3-0.1C75.9,177,75.8,177.1,75.5,176.8z M80.4,196.4
			c0.3,1.1-5.5,1.7-5.5,1.3C74.9,196.9,80.1,196.8,80.4,196.4z M76,193.4c0.3,0.2,0.6,0.2,1-0.1c0.2-0.1,0.3-0.3,0.5-0.4
			C77.1,192.7,75.5,193.2,76,193.4z M75.9,176.7c0-0.3,0.1-0.3,0.3-0.3C76.1,176.6,76.1,176.7,75.9,176.7z M76.5,176.1
			c0,0.3-0.1,0.3-0.3,0.3C76.1,176.1,76.2,176.1,76.5,176.1z M77.2,179.1c-0.3-0.1-1.2,0.3-0.9,0.4
			C76.5,179.8,77.4,179.3,77.2,179.1z M79.1,179.9l-1.5,0.2c-2.8,0.4,2-0.2,2.4-0.3C82.3,178.9,79.1,179.9,79.1,179.9z M77.2,174.7
			c0-0.3-0.1-0.3-0.1-0.6C77.5,174,77.6,174.4,77.2,174.7z M77.8,193.2c0.1,0.1,0.8-0.3,0.6-0.3C78.3,192.8,77.6,193.1,77.8,193.2z
			 M79.2,194.3c-0.3-0.1-1.1,0.3-0.8,0.4C78.6,195,79.4,194.5,79.2,194.3z M79.6,192.4c-0.1-0.1-0.8,0.2-0.6,0.4
			C79.1,192.9,79.9,192.6,79.6,192.4z M79.4,177.6c0.1,0.1,0.6-0.1,0.3-0.3C79.5,177.1,79.2,177.3,79.4,177.6z M80.5,191.9
			c-0.3-0.1-0.8,0.2-0.6,0.4C80,192.4,80.6,192.2,80.5,191.9z M80.5,167.7c-0.4,0-0.6,0.2-0.6,0.4C80.2,168.1,80.4,167.9,80.5,167.7
			z M80.5,167.7c0.2,0,0.3-0.1,0.3-0.3C80.6,167.4,80.5,167.4,80.5,167.7z M80.8,167.4c0.2,0,0.3-0.1,0.3-0.3
			C80.9,166.9,80.8,167.1,80.8,167.4z M81,167c0.4,0,0.6-0.2,0.6-0.4C81.4,166.6,81.1,166.8,81,167z M81.4,191.5
			c-0.1-0.1-0.5,0.3-0.3,0.3C81.2,191.9,81.6,191.8,81.4,191.5z M81.8,178.9c-0.1-0.1-0.8,0.3-0.6,0.3
			C81.3,179.3,82.1,179,81.8,178.9z M81.9,195.6c0.3,0.3-0.1,0.4-0.3,0.3C81.3,195.8,81.8,195.5,81.9,195.6z M82,191.2
			c-0.1-0.1-0.5,0.1-0.3,0.3C81.8,191.6,82.2,191.3,82,191.2z M82.5,162.7c0.1,0.1,0.5-0.1,0.3-0.3
			C82.6,162.3,82.2,162.6,82.5,162.7z M82.9,190.7c-0.1-0.1-0.6,0.1-0.3,0.3C82.8,191.2,83.1,191,82.9,190.7z M83.1,162.4
			c0.1,0.1,0.8-0.2,0.6-0.4C83.6,161.9,82.8,162.1,83.1,162.4z M83.5,190.3c-0.1-0.1-0.6,0.3-0.3,0.3
			C83.4,190.7,83.7,190.6,83.5,190.3z M83.7,192.5c-0.1-0.1-0.6,0.3-0.3,0.3C83.7,192.9,84,192.8,83.7,192.5z M84.1,190
			c-0.3-0.1-0.6,0.1-0.3,0.3C84,190.4,84.3,190.1,84.1,190z M84.7,189.6c-0.3-0.1-0.6,0.3-0.3,0.3C84.4,190,84.9,189.8,84.7,189.6z
			 M85.8,164c0.1,0,0.8-0.2,0.6-0.4C86.3,163.5,85.5,163.7,85.8,164z M86.6,163.6c0.8,0.6,1.6-0.5,1.5-0.5
			C88,162.9,86.1,163,86.6,163.6z M87.5,189.9c-0.3-0.1-0.6,0.1-0.3,0.3C87.3,190.3,87.8,190,87.5,189.9z M88,189.5
			c-0.1-0.1-0.5,0.3-0.3,0.3C87.9,189.9,88.3,189.7,88,189.5z M89.9,188.6c-0.3,0-0.3,0.1-0.3,0.3C89.8,189.1,89.9,188.9,89.9,188.6
			z M89.9,188.6c0.3,0,0.5-0.1,0.6-0.3C90.1,188.3,89.9,188.4,89.9,188.6z M91.5,167.4c0,0.3,0.3,0.8,0.3,0.3
			C91.8,167.3,91.5,166.8,91.5,167.4z"/>
		<path class="st1" d="M117.1,189c0.1,0.3-0.1,0.3-0.3,0c-2.3,4.7-5.2,8.6-10.1,11c0,0.4-0.1,0.6-0.2,0.7c-1.4,0.4-3.6,0.1-4.4-0.2
			c-0.8-0.3-2.4-0.9-3-1.3c-0.8-0.6-1.1-1.2-1.5-1.6c-0.3-0.3-0.8-0.4-1-0.7c-1.9-1.8-3.1-4.3-3.4-7.6c-0.3-3.6,0.7-8.4,1.7-12.8
			c0.4-1.9,1-4.1,1.6-5.7l0.2-0.6l0.3-0.2l0.3-0.2c0-0.2-0.1-0.3-0.2-0.4l-0.3-0.2c0-0.4,0.4-0.3,0.5-0.6c0.6-1.8,0.6-3.1,1.3-3.7
			c-0.1-0.5,0.1-0.8,0.5-0.9c-0.3-0.4-0.1-0.5,0.2-0.5c0.1,0,0.3,0.1,0.4,0.2c0.3-0.3,0.1-1.3,0.3-1.9c0.4-1.3,1-2.1,1.4-3.1
			c0.3-0.9,0.3-1.8,0.6-2.2c0.1-0.1,0.2-0.1,0.3-0.1c0.1,0,0.1,0,0.1,0.1c0.3-0.3,0.2-0.6,0.4-0.9c1.3-1.9,1.9-3.5,3.2-5.5l0.9-1.9
			c0.3-0.6,0.8-0.9,1-1.3c0.3-0.3,0-0.3,0.3-0.6c0.3-0.6,0.9-0.9,1.3-1.5c0.4-0.7,0.5-1.6,0.9-2.2c0.3-0.6,1-0.8,1.6-1.5
			c0.6-0.6,0.7-1.5,1.3-2.2c0.3-0.4,1-0.9,1.6-1.5s1.2-1.5,1.6-1.9c0.3-0.1,0.4,0.4,0.7,0.3c0.1-0.1,0.1-0.2,0.1-0.3
			c0-0.3,0-0.3,0.1-0.3c3.4-1.6,7.7-1.4,8.8,2.4c0.7,2,0.4,4.5-0.2,6.6c-0.4,1.9-1.4,3.7-1.9,5.3c-0.8,1.9-1.3,3.3-2,4.9l-0.8,0.9
			c-0.3,0.4-0.2,1.2-0.4,1.6l-0.8,0.9c-0.3,0.4-0.2,1.1-0.4,1.5c-0.9,1.6-2.7,2.7-4,4.3c-1.3,1.6-2.4,3.3-3.6,4.6
			c-0.8,0.9-1.8,1.9-2.4,2.4c-0.3,0.3-0.7,0.1-0.9,0.3c-0.4,0.3-0.7,0.8-1,1.2c-1.3,1-2.6,1.9-3.6,2.8l-0.5,0.6
			c-0.8,0.4-1,0.6-1.4,1.2c-0.7,1-0.8,1.4-1.2,2.5c-0.3,1.1-0.3,1.5-0.6,2.4c-0.1,0.7-0.8,1.9-0.8,2.5c-0.1,1.6,0.5,2,0.3,3.4
			c-0.3,1.7-1.3,7.4-0.3,8.2c0.4,0.4,3.3-0.3,4-0.6c0.4-0.2,1-0.4,1.8-0.8c2.6-1.7,5.1-4.1,7.1-6.1c0.7-0.8,0.8-1.2,1.6-1.5
			c0.1-0.1,0.2-0.6,0.3-0.7c1.3-1.1,1.9-2.2,2.8-3.6l3-4.6c0.3-0.3-0.1-0.7,0.2-0.9c0-0.1,0.5,0.1,0.6,0c0.3-0.3-0.3-0.7-0.2-0.9
			c0.1-0.1,0.6,0.1,0.7,0c0.1-0.1-0.2-0.4-0.1-0.7c0.3-0.3,0.6-0.3,0.8-0.6c0.1-0.1-0.1-0.8,0.2-0.9c0.1-0.1,1.4,0,1.5,0.1
			c0.2,0.3-0.6,4.2-0.5,4.3l-0.8,0.9c-0.3,0.6-0.1,1-0.3,1.6c-0.1,0.1-0.5,0-0.6,0.3c-0.3,0.3,0.1,0.7-0.2,0.9
			c-0.6,1-1.1,1.6-1.4,2.5c-0.7,1.4-1.9,3.4-2.8,4C117.4,188.6,117.4,188.9,117.1,189v-0.3c-0.3-0.1-0.3,0.1-0.3,0.3H117.1z
			 M94.6,188.1c0-0.3-0.4-0.4-0.3,0C94.2,188.4,94.6,188.5,94.6,188.1z M94.3,186.5c0,0.3,0.3,0.9,0.3,0.3
			C94.6,186.5,94.3,185.9,94.3,186.5z M94.4,185.3c0,0.3,0.4,0.9,0.3,0.3C94.7,185.3,94.4,184.7,94.4,185.3z M94.6,184.3
			c0,0.3,0.4,0.4,0.3,0C94.8,184.1,94.5,184,94.6,184.3z M94.6,190.3c0,0.3,0.2,1.1,0.3,1.5C95.7,195,94.8,188.6,94.6,190.3z
			 M94.6,183.1c0.1,0.3,0.4,0.4,0.3,0C95,182.8,94.6,182.7,94.6,183.1z M94.8,182.1c0.3,0.1,0.5,0,0.3-0.3
			C95,181.8,94.6,181.9,94.8,182.1z M95.5,176.2c-0.5,0.5-0.7,3-0.2,2.8C95.4,179,96.3,175.4,95.5,176.2z M96.7,190.3
			c0,0.3,0.2,0.9,0.3,1.3C97.7,194.6,97,188.7,96.7,190.3z M97.3,193.2c-0.1-0.3-0.4-0.4-0.3,0C96.9,193.4,97.3,193.5,97.3,193.2z
			 M96.9,189.1c0,0.3,0.3,0.9,0.3,0.3C97.3,189.1,96.9,188.6,96.9,189.1z M97.3,187.9c-0.1-0.3-0.4-0.4-0.3,0
			C97,188.1,97.3,188.2,97.3,187.9z M97.4,186.6c0-0.3-0.3-0.3-0.3,0C97.2,186.9,97.5,186.9,97.4,186.6z M97.3,185.7
			c0.1,0.1,0.5-0.1,0.3-0.3C97.4,185.3,97,185.4,97.3,185.7z M97.7,194.1c0-0.3-0.3-0.3-0.3,0C97.4,194.4,97.8,194.5,97.7,194.1z
			 M98.4,167.2c-0.1-0.1-0.5,0.1-0.3,0.3C98.2,167.6,98.6,167.4,98.4,167.2z M98.6,166.6c-0.1-0.1-0.5,0.1-0.3,0.3
			C98.4,167,98.9,166.8,98.6,166.6z M100,196.7c0.3,0.3,1,0.1,1.3,0.1C104.1,196.5,99.3,196.2,100,196.7z M123.7,138.4
			c-0.3,0-1.7,1.3-1.9,1.5c-0.8,0.7-2.8,3-4.1,4c-0.9,0.8-1.4,2-2.3,3.4c-0.7,1.1-1.8,1.7-2,2.8c-0.9,4.6-3.7,8.2-5.5,12.7
			c-0.6,1.8-1.2,3.3-1.9,5.3c0,0-1.4,2.1-0.5,2.4c-0.3,0,2.6-2.3,2.7-2.4c0.3-0.3,0.3-0.7,0.5-0.9c0.3-0.3,0.6-0.1,0.8-0.3
			c2-1.8,3.3-5.2,5.2-6.8c0-0.3,0.1-0.3,0.3-0.3c0.1,0.1,0.1,0.3,0.1,0.3c0.3,0,0.2-0.3-0.1-0.3c0.3-1.1,1.1-1.8,1.8-2.7
			c0.1-0.3,0.6-0.3,0.6-0.3c0-0.3-0.2-0.5-0.1-0.6c0.3-0.7,1-1,1.3-1.6c0.3-0.6,0.3-1.4,0.6-2.1c0.3-0.6,0.6-1,1-1.6
			c0.3-0.3,0.5-1.7,0.8-2.4c0.6-1.4,0.9-2.7,1.9-3.7c0.3-1.4-0.1,0.3,0.4-0.9C123.3,143.4,124.5,138.9,123.7,138.4z M114.7,160.1
			c0.3,0.3,0.3,0.3,0.3,0H114.7z M119.8,139.6c-0.2-0.1-0.3,0-0.3,0.3C119.7,139.9,119.8,139.8,119.8,139.6z M119.8,139.6
			c0.4,0,0.8-0.2,0.8-0.6C120.2,138.9,119.9,139.1,119.8,139.6z M120.5,180.6c0.4,0.4,1.8-2.4,0.4-0.9
			C120.8,179.8,120.1,180,120.5,180.6z M120.7,139c0.2,0,0.3-0.1,0.3-0.3C120.7,138.6,120.7,138.7,120.7,139z M120.8,136.1
			c0.1,0.1,0.5,0,0.3-0.3C121,135.8,120.6,135.8,120.8,136.1z M120.9,138.6c0.2,0.1,0.3-0.1,0.3-0.3
			C121,138.3,120.9,138.4,120.9,138.6z M122,135.8c2,0-1.1-0.5-0.6,0H122z M121.8,148.3c-0.1-0.1-0.5,0.1-0.3,0.3
			C121.7,148.8,122.1,148.6,121.8,148.3z M122.7,137.7c0.1,0.1,0.5,0,0.3-0.3C122.7,137.4,122.4,137.5,122.7,137.7z M123.4,173.4
			c0.3,0.3-0.2,0.4-0.3,0.3C122.8,173.5,123.3,173.3,123.4,173.4z M123.2,137.5c0.3,0.1,0.8-0.1,0.6-0.3
			C123.7,137,122.9,137.2,123.2,137.5z M125.2,141.8c-0.3-0.1-0.6,0.1-0.3,0.3C125.1,142.3,125.5,142.1,125.2,141.8z M125.3,140.9
			c-0.1-0.1-0.5,0.1-0.3,0.3C125.3,141.3,125.6,141.2,125.3,140.9z M125,139.4c0,0.4,0.4,1.2,0.4,0.6
			C125.6,139.6,125.1,138.8,125,139.4z"/>
	</g>
</g>
</svg>
