<?xml version="1.0" encoding="utf-8"?>
<!-- Generator: Adobe Illustrator 24.1.0, SVG Export Plug-In . SVG Version: 6.00 Build 0)  -->
<svg version="1.1" id="Capa_1" xmlns="http://www.w3.org/2000/svg" xmlns:xlink="http://www.w3.org/1999/xlink" x="0px" y="0px"
	 viewBox="0 0 32 32" style="enable-background:new 0 0 32 32;" xml:space="preserve">
<style type="text/css">
	.st0{fill:#160F29;}
</style>
<g>
	<g>
		<path class="st0" d="M22.8,20.6c-1-0.1-2.6-0.1-4-0.1c-1,0.1-2.3,0.1-3.4,0c0,0.1,0.2,0,0.4,0c-0.4,0.1-0.9-0.1-1.4,0
			c0,0.1,0.2,0,0.4,0c-1.2,0.1-2.5,0.2-3.7,0.1c-0.1,0-0.1,0-0.1,0c0.1,0,0.1,0,0,0c-0.2,0-0.7-0.1-0.8,0h0.2
			c-0.5,0.1-1.3,0.1-1.8,0.2c-0.3,0-0.6,0.1-0.9,0.1c-0.1,0-0.4,0-0.4,0.1c-0.3,0-0.2,0.1-0.4,0c-0.1,0-0.1,0-0.1,0
			c-0.1,0-0.2,0-0.1,0c0,0.1-0.2-0.1-0.3,0c-0.2,0-0.4,0-0.6,0.1H5.4c0,0,0.1,0,0.2,0c-0.3,0.1-0.7,0.1-1.1,0.2
			c-0.4,0.1-0.7,0.2-1.2,0.1c-0.1-0.2,0-0.4,0.1-0.6c1.2-0.3,2.8-0.5,4.5-0.6c2.5-0.2,5.3-0.4,8.1-0.4h1.7c0.2,0,0.2,0,0.4,0
			c3.6,0,6.9,0.1,9.2,0.6c0.2,0.1,0.6,0.2,0.7,0.4c0,0.1-0.2,0.1-0.2,0.2c-0.5,0-0.7-0.1-1-0.2c-0.1,0-0.1,0-0.1,0
			c-0.2,0-0.4-0.1-0.6-0.1c-0.9-0.1-1.8-0.2-2.8-0.2c0,0,0.1,0,0.2,0C23.2,20.5,22.9,20.6,22.8,20.6c0,0-0.2,0-0.3,0
			C22.5,20.5,22.6,20.6,22.8,20.6z M4.3,20.8C4.3,20.8,4.2,20.8,4.3,20.8C4.3,20.9,4.4,20.9,4.3,20.8z M4.7,21.4
			C4.7,21.4,4.6,21.4,4.7,21.4C4.6,21.4,4.7,21.4,4.7,21.4z M4.8,21.4C4.8,21.4,4.7,21.4,4.8,21.4C4.8,21.4,4.8,21.4,4.8,21.4z
			 M4.9,21.3C4.9,21.3,4.8,21.3,4.9,21.3C4.9,21.4,5,21.4,4.9,21.3z M5.1,21.3C5.1,21.3,5,21.3,5.1,21.3C5.1,21.4,5.1,21.3,5.1,21.3
			z M5.3,20.7c-0.1,0-0.1,0-0.1,0H5.3z M5.2,21.2C5.2,21.2,5.1,21.2,5.2,21.2C5.2,21.3,5.3,21.3,5.2,21.2z M5.5,21.2
			C5.7,21.2,5.7,21.2,5.5,21.2L5.5,21.2z M5.7,21.2C5.7,21.2,5.8,21.2,5.7,21.2C5.9,21.2,5.8,21.2,5.7,21.2z M6,21.2L6,21.2
			C6.1,21.2,6,21.2,6,21.2z M6.5,20.6C6.5,20.6,6.4,20.6,6.5,20.6C6.5,20.6,6.5,20.6,6.5,20.6z M6.7,20.8
			C6.7,20.8,6.6,20.8,6.7,20.8C6.7,20.8,6.8,20.8,6.7,20.8z M6.8,20.6c-0.1,0-0.1,0-0.1,0C6.7,20.6,6.8,20.6,6.8,20.6z M7,20.8
			c-0.1,0-0.1,0-0.1,0H7z M7,20.6c-0.1,0-0.1,0-0.1,0C7,20.6,7,20.6,7,20.6z M7.2,20.7c-0.1,0-0.1,0-0.1,0
			C7.1,20.8,7.2,20.8,7.2,20.7z M7.3,20.5c-0.1,0-0.1,0-0.1,0C7.2,20.6,7.3,20.6,7.3,20.5z M7.5,20.7c-0.1,0-0.1,0-0.1,0
			C7.5,20.7,7.5,20.7,7.5,20.7z M7.5,20.5c-0.1,0-0.1,0-0.1,0C7.5,20.5,7.5,20.5,7.5,20.5z M7.8,20.7c-0.1,0-0.1,0-0.1,0
			C7.7,20.7,7.8,20.7,7.8,20.7z M7.8,20.5c-0.1,0-0.1,0-0.1,0C7.8,20.5,7.8,20.5,7.8,20.5z M8.1,20.6c-0.1,0-0.2,0-0.2,0
			C7.9,20.7,8.1,20.7,8.1,20.6z M8.1,20.5c-0.1,0-0.2,0-0.2,0C8,20.5,8.1,20.5,8.1,20.5z M8.4,20.6c-0.1,0-0.2,0-0.2,0
			C8.3,20.6,8.4,20.6,8.4,20.6z M8.7,20.6c-0.1,0-0.2,0-0.2,0C8.6,20.6,8.7,20.6,8.7,20.6z M8.9,20.4c0.1,0,0.2,0,0.2,0
			C8.9,20.4,8.9,20.4,8.9,20.4z M9,20.6C9,20.6,8.9,20.6,9,20.6C8.9,20.6,9,20.6,9,20.6z M9.1,20.8c-0.1,0-0.1,0-0.1,0
			C9,20.8,9.1,20.8,9.1,20.8z M9.4,20.8c-0.1,0-0.1,0-0.1,0C9.3,20.8,9.4,20.8,9.4,20.8z M9.4,20.3C9.4,20.3,9.3,20.3,9.4,20.3
			C9.4,20.4,9.5,20.4,9.4,20.3z M9.6,20.7c-0.1,0-0.1,0-0.1,0C9.5,20.8,9.6,20.8,9.6,20.7z M9.6,20.8c-0.1,0.1,0.4,0.1,0.3,0H9.6z
			 M9.9,20.7C9.9,20.7,9.7,20.7,9.9,20.7L9.9,20.7z M10.5,20.3c-0.1,0-0.1,0-0.1,0H10.5z M11.2,20.6c-0.1,0-0.1,0-0.1,0
			C11.1,20.7,11.2,20.7,11.2,20.6z M11.2,20.5C11.2,20.5,11.1,20.5,11.2,20.5C11.1,20.5,11.3,20.5,11.2,20.5z M12.2,20.2h-0.2
			c-0.1,0-0.2,0-0.2,0C11.9,20.3,12.2,20.3,12.2,20.2z M12.3,20.6c-0.1,0-0.2,0-0.2,0C12.2,20.6,12.2,20.6,12.3,20.6z M12.6,20.2
			c-0.1,0-0.2,0-0.2,0C12.4,20.2,12.5,20.2,12.6,20.2z M13.4,20.4h-0.2c-0.1,0-0.1,0-0.1,0C13.1,20.4,13.4,20.5,13.4,20.4z
			 M13.5,20.6C13.5,20.6,13.4,20.6,13.5,20.6L13.5,20.6z M14,20.3c-0.1,0-0.2,0-0.3,0c-0.1,0-0.2,0-0.2,0C13.7,20.4,14,20.4,14,20.3
			z M13.7,20.2c0.1,0,0.2,0,0.2,0C13.8,20.1,13.7,20.1,13.7,20.2z M15.1,20.3c-0.1,0-0.3,0-0.4,0h-0.2c-0.1,0-0.1,0-0.1,0
			c0.1,0,0.3,0,0.4,0C14.9,20.3,15.1,20.4,15.1,20.3z M14.9,20.5h-0.2c-0.1,0-0.2,0-0.2,0C14.6,20.5,14.9,20.6,14.9,20.5z
			 M14.8,20.1c-0.1,0-0.1,0-0.1,0c0.1,0,0.4,0.1,0.4,0H14.8z M16,20.3c-0.1,0-0.2,0-0.3,0h-0.1c-0.1,0-0.1,0-0.1,0
			C15.6,20.3,15.9,20.4,16,20.3z M16.1,20.5c-0.1,0-0.2,0-0.2,0C15.9,20.5,16,20.5,16.1,20.5z M16.1,20.1c-0.1,0-0.2,0-0.2,0h0.5
			c0.1,0,0.4,0.1,0.4,0c-0.2,0-0.3,0-0.5,0H16.1z M16.5,20.3c0.1,0,0.4,0.1,0.5,0C16.9,20.3,16.7,20.3,16.5,20.3
			c-0.1,0-0.5-0.1-0.5,0H16.5z M17,20.1c1.4,0.1,3.1,0.1,4.6,0.1C20.2,20.1,18.5,20.1,17,20.1z M17.8,20.5h-0.4c-0.1,0-0.1,0-0.1,0
			C17.3,20.5,17.7,20.5,17.8,20.5z M19.3,20.5c0.1,0,0.4,0.1,0.4,0H19.3c-0.1,0-0.4-0.1-0.4,0H19.3z M22.4,20.6
			c-0.4,0.1-1.2-0.1-1.8,0c0.1-0.1,0.4,0,0.6,0c0.2,0,0.5,0,0.7,0C22.1,20.6,22.2,20.6,22.4,20.6z M21.7,20.3c-0.1,0-0.1,0-0.1,0
			S21.6,20.3,21.7,20.3z M22.7,20.2c-0.2-0.1-0.7,0-1.1,0C21.8,20.2,22.3,20.1,22.7,20.2z M22.4,20.3c-0.1,0-0.2,0-0.2,0
			C22.3,20.4,22.4,20.4,22.4,20.3z M23.2,20.2h-0.3c-0.1,0-0.2,0-0.2,0C22.9,20.2,23.2,20.3,23.2,20.2z M23.8,20.2
			c-0.1,0-0.1,0-0.2,0c-0.1,0-0.1,0-0.1,0C23.5,20.2,23.8,20.3,23.8,20.2z M23.9,20.3c0.1,0,0.2,0,0.2,0
			C24,20.3,23.9,20.3,23.9,20.3z M24.2,20.6c-0.1,0-0.2,0-0.2,0C24.1,20.6,24.2,20.6,24.2,20.6z M24.5,20.3c-0.1,0-0.2,0-0.2,0
			C24.4,20.3,24.5,20.3,24.5,20.3z M24.9,20.3C24.9,20.3,24.8,20.3,24.9,20.3C24.9,20.3,25,20.3,24.9,20.3z M25.3,20.5
			c-0.1,0-0.2,0-0.2,0C25.2,20.6,25.3,20.6,25.3,20.5z M25.2,20.4C25.2,20.4,25.3,20.4,25.2,20.4C25.3,20.3,25.2,20.3,25.2,20.4z
			 M25.6,20.6C25.6,20.6,25.5,20.6,25.6,20.6L25.6,20.6z M26.2,20.5c-0.1,0-0.1,0-0.1,0C26.1,20.5,26.2,20.5,26.2,20.5z M26.2,20.9
			C26.2,20.9,26.1,20.9,26.2,20.9C26.1,20.9,26.2,20.9,26.2,20.9z M26.3,20.9C26.3,20.9,26.2,20.9,26.3,20.9
			C26.3,20.9,26.4,20.9,26.3,20.9z M26.6,21L26.6,21C26.7,21,26.6,21,26.6,21s-0.1,0-0.1,0l0,0H26.6z M27.1,21.1
			C27.1,21.1,27,21.1,27.1,21.1C27.1,21.1,27.1,21.1,27.1,21.1z M27.2,21.1C27.2,21.1,27.1,21.1,27.2,21.1
			C27.2,21.1,27.3,21.1,27.2,21.1z"/>
	</g>
</g>
</svg>
